<mxfile host="Electron" modified="2024-03-23T18:31:36.913Z" agent="Mozilla/5.0 (Macintosh; Intel Mac OS X 10_15_7) AppleWebKit/537.36 (KHTML, like Gecko) draw.io/24.0.4 Chrome/120.0.6099.109 Electron/28.1.0 Safari/537.36" etag="Ed4E8zNNUj3mC1_F8VZ2" version="24.0.4" type="device">
  <diagram name="Page-1" id="crU5jMqabEnyuIWfB87f">
    <mxGraphModel dx="6210" dy="4535" grid="1" gridSize="10" guides="1" tooltips="1" connect="1" arrows="1" fold="1" page="1" pageScale="1" pageWidth="4100" pageHeight="3500" math="0" shadow="0">
      <root>
        <mxCell id="0" />
        <mxCell id="1" parent="0" />
        <mxCell id="-oRlV92g44ajmfJlMFko-24" value="" style="rounded=0;whiteSpace=wrap;html=1;" vertex="1" parent="1">
          <mxGeometry width="4100" height="3500" as="geometry" />
        </mxCell>
        <mxCell id="TRZYRDVv4xPQoLyUAHgP-5" value="&lt;font style=&quot;font-size: 16px;&quot; color=&quot;#000000&quot;&gt;source-elasticOrders-push&lt;/font&gt;" style="rounded=0;whiteSpace=wrap;html=1;fillColor=#f8cecc;gradientColor=#ea6b66;strokeColor=#b85450;" parent="1" vertex="1">
          <mxGeometry x="2610" y="1869" width="200" height="60" as="geometry" />
        </mxCell>
        <mxCell id="p0ilgyeI6ZEBC6Mqhe-d-158" style="edgeStyle=orthogonalEdgeStyle;rounded=0;orthogonalLoop=1;jettySize=auto;html=1;entryX=0.5;entryY=0;entryDx=0;entryDy=0;strokeWidth=3;" parent="1" source="TRZYRDVv4xPQoLyUAHgP-34" target="m2Rx3y2PIeW7X46C0TxE-1" edge="1">
          <mxGeometry relative="1" as="geometry">
            <Array as="points">
              <mxPoint x="2150" y="900" />
              <mxPoint x="1915" y="900" />
            </Array>
          </mxGeometry>
        </mxCell>
        <mxCell id="p0ilgyeI6ZEBC6Mqhe-d-159" style="edgeStyle=orthogonalEdgeStyle;rounded=0;orthogonalLoop=1;jettySize=auto;html=1;strokeWidth=3;" parent="1" source="TRZYRDVv4xPQoLyUAHgP-34" target="TRZYRDVv4xPQoLyUAHgP-103" edge="1">
          <mxGeometry relative="1" as="geometry">
            <Array as="points">
              <mxPoint x="2150" y="900" />
              <mxPoint x="2420" y="900" />
            </Array>
          </mxGeometry>
        </mxCell>
        <mxCell id="p0ilgyeI6ZEBC6Mqhe-d-160" style="edgeStyle=orthogonalEdgeStyle;rounded=0;orthogonalLoop=1;jettySize=auto;html=1;entryX=0.5;entryY=0;entryDx=0;entryDy=0;strokeWidth=3;" parent="1" source="TRZYRDVv4xPQoLyUAHgP-34" target="TRZYRDVv4xPQoLyUAHgP-112" edge="1">
          <mxGeometry relative="1" as="geometry">
            <Array as="points">
              <mxPoint x="2150" y="900" />
              <mxPoint x="2900" y="900" />
            </Array>
          </mxGeometry>
        </mxCell>
        <mxCell id="p0ilgyeI6ZEBC6Mqhe-d-161" style="edgeStyle=orthogonalEdgeStyle;rounded=0;orthogonalLoop=1;jettySize=auto;html=1;entryX=0.5;entryY=0;entryDx=0;entryDy=0;strokeWidth=3;" parent="1" source="TRZYRDVv4xPQoLyUAHgP-34" target="TRZYRDVv4xPQoLyUAHgP-41" edge="1">
          <mxGeometry relative="1" as="geometry">
            <Array as="points">
              <mxPoint x="2150" y="900" />
              <mxPoint x="3300" y="900" />
            </Array>
          </mxGeometry>
        </mxCell>
        <mxCell id="p0ilgyeI6ZEBC6Mqhe-d-162" style="edgeStyle=orthogonalEdgeStyle;rounded=0;orthogonalLoop=1;jettySize=auto;html=1;strokeWidth=3;" parent="1" source="TRZYRDVv4xPQoLyUAHgP-34" target="TRZYRDVv4xPQoLyUAHgP-63" edge="1">
          <mxGeometry relative="1" as="geometry">
            <Array as="points">
              <mxPoint x="2150" y="900" />
              <mxPoint x="3600" y="900" />
            </Array>
          </mxGeometry>
        </mxCell>
        <mxCell id="p0ilgyeI6ZEBC6Mqhe-d-163" style="edgeStyle=orthogonalEdgeStyle;rounded=0;orthogonalLoop=1;jettySize=auto;html=1;entryX=0.5;entryY=0;entryDx=0;entryDy=0;strokeWidth=3;" parent="1" source="TRZYRDVv4xPQoLyUAHgP-34" target="p0ilgyeI6ZEBC6Mqhe-d-33" edge="1">
          <mxGeometry relative="1" as="geometry">
            <Array as="points">
              <mxPoint x="2150" y="900" />
              <mxPoint x="3900" y="900" />
            </Array>
          </mxGeometry>
        </mxCell>
        <mxCell id="p0ilgyeI6ZEBC6Mqhe-d-164" style="edgeStyle=orthogonalEdgeStyle;rounded=0;orthogonalLoop=1;jettySize=auto;html=1;entryX=0.5;entryY=0;entryDx=0;entryDy=0;strokeWidth=3;" parent="1" source="TRZYRDVv4xPQoLyUAHgP-34" target="TRZYRDVv4xPQoLyUAHgP-50" edge="1">
          <mxGeometry relative="1" as="geometry">
            <Array as="points">
              <mxPoint x="2150" y="900" />
              <mxPoint x="1520" y="900" />
            </Array>
          </mxGeometry>
        </mxCell>
        <mxCell id="p0ilgyeI6ZEBC6Mqhe-d-165" style="edgeStyle=orthogonalEdgeStyle;rounded=0;orthogonalLoop=1;jettySize=auto;html=1;entryX=0.5;entryY=0;entryDx=0;entryDy=0;strokeWidth=3;" parent="1" source="TRZYRDVv4xPQoLyUAHgP-34" target="p0ilgyeI6ZEBC6Mqhe-d-50" edge="1">
          <mxGeometry relative="1" as="geometry">
            <Array as="points">
              <mxPoint x="2150" y="900" />
              <mxPoint x="720" y="900" />
            </Array>
          </mxGeometry>
        </mxCell>
        <mxCell id="p0ilgyeI6ZEBC6Mqhe-d-166" style="edgeStyle=orthogonalEdgeStyle;rounded=0;orthogonalLoop=1;jettySize=auto;html=1;entryX=0.5;entryY=0;entryDx=0;entryDy=0;strokeWidth=3;" parent="1" source="TRZYRDVv4xPQoLyUAHgP-34" target="TRZYRDVv4xPQoLyUAHgP-54" edge="1">
          <mxGeometry relative="1" as="geometry">
            <Array as="points">
              <mxPoint x="2150" y="900" />
              <mxPoint x="180" y="900" />
            </Array>
          </mxGeometry>
        </mxCell>
        <mxCell id="TRZYRDVv4xPQoLyUAHgP-34" value="&lt;span style=&quot;color: rgb(0, 0, 0); font-size: 16px;&quot;&gt;Gateway&lt;/span&gt;" style="rounded=0;whiteSpace=wrap;html=1;fillColor=#d5e8d4;gradientColor=#97d077;strokeColor=#82b366;fontSize=19;" parent="1" vertex="1">
          <mxGeometry x="2050.08" y="630" width="200" height="60" as="geometry" />
        </mxCell>
        <mxCell id="p0ilgyeI6ZEBC6Mqhe-d-121" style="edgeStyle=orthogonalEdgeStyle;rounded=0;orthogonalLoop=1;jettySize=auto;html=1;entryX=0.5;entryY=0;entryDx=0;entryDy=0;strokeWidth=3;" parent="1" source="TRZYRDVv4xPQoLyUAHgP-54" target="TRZYRDVv4xPQoLyUAHgP-94" edge="1">
          <mxGeometry relative="1" as="geometry">
            <Array as="points">
              <mxPoint x="180" y="2510" />
              <mxPoint x="540" y="2510" />
            </Array>
          </mxGeometry>
        </mxCell>
        <mxCell id="p0ilgyeI6ZEBC6Mqhe-d-128" style="edgeStyle=orthogonalEdgeStyle;rounded=0;orthogonalLoop=1;jettySize=auto;html=1;entryX=0.5;entryY=0;entryDx=0;entryDy=0;strokeWidth=3;" parent="1" source="TRZYRDVv4xPQoLyUAHgP-54" target="TRZYRDVv4xPQoLyUAHgP-95" edge="1">
          <mxGeometry relative="1" as="geometry">
            <Array as="points">
              <mxPoint x="180" y="2510" />
              <mxPoint x="335" y="2510" />
            </Array>
          </mxGeometry>
        </mxCell>
        <mxCell id="p0ilgyeI6ZEBC6Mqhe-d-129" style="edgeStyle=orthogonalEdgeStyle;rounded=0;orthogonalLoop=1;jettySize=auto;html=1;exitX=0.5;exitY=1;exitDx=0;exitDy=0;entryX=0.5;entryY=0;entryDx=0;entryDy=0;strokeWidth=3;" parent="1" source="TRZYRDVv4xPQoLyUAHgP-54" target="TRZYRDVv4xPQoLyUAHgP-93" edge="1">
          <mxGeometry relative="1" as="geometry">
            <Array as="points">
              <mxPoint x="180" y="2510" />
              <mxPoint x="740" y="2510" />
            </Array>
          </mxGeometry>
        </mxCell>
        <mxCell id="TRZYRDVv4xPQoLyUAHgP-54" value="&lt;span style=&quot;color: rgb(0, 0, 0);&quot;&gt;&lt;font style=&quot;font-size: 16px;&quot;&gt;archive-restore-data-manager&lt;/font&gt;&lt;/span&gt;" style="rounded=0;whiteSpace=wrap;html=1;fillColor=#ffcd28;gradientColor=#ffa500;strokeColor=#d79b00;" parent="1" vertex="1">
          <mxGeometry x="80" y="1220" width="200" height="60" as="geometry" />
        </mxCell>
        <mxCell id="TRZYRDVv4xPQoLyUAHgP-55" value="&lt;font color=&quot;#000000&quot;&gt;&lt;span style=&quot;font-size: 16px;&quot;&gt;source-elasticOrders-pull&lt;/span&gt;&lt;/font&gt;" style="rounded=0;whiteSpace=wrap;html=1;fillColor=#f8cecc;gradientColor=#ea6b66;strokeColor=#b85450;" parent="1" vertex="1">
          <mxGeometry x="1882.5699999999997" y="1970" width="200" height="60" as="geometry" />
        </mxCell>
        <mxCell id="TRZYRDVv4xPQoLyUAHgP-56" style="edgeStyle=orthogonalEdgeStyle;rounded=0;orthogonalLoop=1;jettySize=auto;html=1;entryX=1;entryY=0.5;entryDx=0;entryDy=0;strokeWidth=3;" parent="1" source="TRZYRDVv4xPQoLyUAHgP-57" target="TRZYRDVv4xPQoLyUAHgP-55" edge="1">
          <mxGeometry relative="1" as="geometry" />
        </mxCell>
        <mxCell id="TRZYRDVv4xPQoLyUAHgP-57" value="&lt;font style=&quot;font-size: 16px;&quot; color=&quot;#000000&quot;&gt;kafka-connect&lt;/font&gt;" style="rounded=0;whiteSpace=wrap;html=1;fillColor=#fad9d5;strokeColor=#ae4132;fontSize=16;" parent="1" vertex="1">
          <mxGeometry x="2030" y="1869" width="200" height="60" as="geometry" />
        </mxCell>
        <mxCell id="p0ilgyeI6ZEBC6Mqhe-d-84" style="edgeStyle=orthogonalEdgeStyle;rounded=0;orthogonalLoop=1;jettySize=auto;html=1;entryX=0.5;entryY=0;entryDx=0;entryDy=0;strokeWidth=3;" parent="1" source="TRZYRDVv4xPQoLyUAHgP-62" target="TRZYRDVv4xPQoLyUAHgP-68" edge="1">
          <mxGeometry relative="1" as="geometry" />
        </mxCell>
        <mxCell id="p0ilgyeI6ZEBC6Mqhe-d-143" style="edgeStyle=orthogonalEdgeStyle;rounded=0;orthogonalLoop=1;jettySize=auto;html=1;entryX=0.5;entryY=0;entryDx=0;entryDy=0;exitX=0.5;exitY=1;exitDx=0;exitDy=0;strokeWidth=3;" parent="1" source="TRZYRDVv4xPQoLyUAHgP-63" target="p0ilgyeI6ZEBC6Mqhe-d-2" edge="1">
          <mxGeometry relative="1" as="geometry">
            <Array as="points">
              <mxPoint x="3600" y="2340" />
              <mxPoint x="2183" y="2340" />
            </Array>
          </mxGeometry>
        </mxCell>
        <mxCell id="TRZYRDVv4xPQoLyUAHgP-63" value="&lt;span style=&quot;color: rgb(0, 0, 0);&quot;&gt;&lt;font style=&quot;font-size: 16px;&quot;&gt;data-notifier-manager&lt;/font&gt;&lt;/span&gt;" style="rounded=0;whiteSpace=wrap;html=1;fillColor=#ffcd28;gradientColor=#ffa500;strokeColor=#d79b00;" parent="1" vertex="1">
          <mxGeometry x="3500" y="1220" width="200" height="60" as="geometry" />
        </mxCell>
        <mxCell id="TRZYRDVv4xPQoLyUAHgP-65" value="&lt;font style=&quot;font-size: 16px;&quot; color=&quot;#000000&quot;&gt;mail-notifer-sender&lt;/font&gt;" style="rounded=0;whiteSpace=wrap;html=1;fillColor=#e6d0de;gradientColor=#d5739d;strokeColor=#996185;" parent="1" vertex="1">
          <mxGeometry x="3280" y="2182.5" width="200" height="60" as="geometry" />
        </mxCell>
        <mxCell id="p0ilgyeI6ZEBC6Mqhe-d-85" style="edgeStyle=orthogonalEdgeStyle;rounded=0;orthogonalLoop=1;jettySize=auto;html=1;entryX=0;entryY=0.5;entryDx=0;entryDy=0;strokeWidth=3;" parent="1" source="TRZYRDVv4xPQoLyUAHgP-68" target="TRZYRDVv4xPQoLyUAHgP-65" edge="1">
          <mxGeometry relative="1" as="geometry" />
        </mxCell>
        <mxCell id="p0ilgyeI6ZEBC6Mqhe-d-141" style="edgeStyle=orthogonalEdgeStyle;rounded=0;orthogonalLoop=1;jettySize=auto;html=1;entryX=0.5;entryY=0;entryDx=0;entryDy=0;strokeWidth=3;" parent="1" source="TRZYRDVv4xPQoLyUAHgP-68" target="p0ilgyeI6ZEBC6Mqhe-d-2" edge="1">
          <mxGeometry relative="1" as="geometry">
            <Array as="points">
              <mxPoint x="3100" y="2340" />
              <mxPoint x="2183" y="2340" />
            </Array>
          </mxGeometry>
        </mxCell>
        <mxCell id="TRZYRDVv4xPQoLyUAHgP-68" value="&lt;font style=&quot;font-size: 16px;&quot; color=&quot;#000000&quot;&gt;notifier-validator&lt;/font&gt;" style="rounded=0;whiteSpace=wrap;html=1;fillColor=#f8cecc;gradientColor=#ea6b66;strokeColor=#b85450;" parent="1" vertex="1">
          <mxGeometry x="3000" y="2182.5" width="200" height="60" as="geometry" />
        </mxCell>
        <mxCell id="TRZYRDVv4xPQoLyUAHgP-93" value="&lt;span style=&quot;color: rgb(0, 0, 0);&quot;&gt;&lt;font style=&quot;font-size: 16px;&quot;&gt;archive-data-get&lt;/font&gt;&lt;/span&gt;" style="rounded=0;whiteSpace=wrap;html=1;fillColor=#d5e8d4;strokeColor=#82b366;gradientColor=#97d077;" parent="1" vertex="1">
          <mxGeometry x="640" y="2760" width="200" height="60" as="geometry" />
        </mxCell>
        <mxCell id="p0ilgyeI6ZEBC6Mqhe-d-122" style="edgeStyle=orthogonalEdgeStyle;rounded=0;orthogonalLoop=1;jettySize=auto;html=1;entryX=0.5;entryY=0;entryDx=0;entryDy=0;strokeWidth=3;" parent="1" source="TRZYRDVv4xPQoLyUAHgP-94" target="p0ilgyeI6ZEBC6Mqhe-d-2" edge="1">
          <mxGeometry relative="1" as="geometry">
            <Array as="points">
              <mxPoint x="690" y="2630" />
              <mxPoint x="690" y="2340" />
              <mxPoint x="2183" y="2340" />
            </Array>
          </mxGeometry>
        </mxCell>
        <mxCell id="TRZYRDVv4xPQoLyUAHgP-94" value="&lt;font color=&quot;#000000&quot; style=&quot;font-size: 16px;&quot;&gt;archive-data-save&lt;/font&gt;" style="rounded=0;whiteSpace=wrap;html=1;fillColor=#dae8fc;gradientColor=#7ea6e0;strokeColor=#6c8ebf;" parent="1" vertex="1">
          <mxGeometry x="440" y="2600" width="200" height="60" as="geometry" />
        </mxCell>
        <mxCell id="TRZYRDVv4xPQoLyUAHgP-95" value="&lt;span style=&quot;color: rgb(0, 0, 0);&quot;&gt;&lt;font style=&quot;font-size: 16px;&quot;&gt;archive-data-delete&lt;/font&gt;&lt;/span&gt;" style="rounded=0;whiteSpace=wrap;html=1;fillColor=#d5e8d4;gradientColor=#97d077;strokeColor=#82b366;" parent="1" vertex="1">
          <mxGeometry x="235.14" y="2760" width="200" height="60" as="geometry" />
        </mxCell>
        <mxCell id="p0ilgyeI6ZEBC6Mqhe-d-77" style="edgeStyle=orthogonalEdgeStyle;rounded=0;orthogonalLoop=1;jettySize=auto;html=1;entryX=0.5;entryY=0;entryDx=0;entryDy=0;strokeWidth=3;" parent="1" source="TRZYRDVv4xPQoLyUAHgP-105" target="TRZYRDVv4xPQoLyUAHgP-58" edge="1">
          <mxGeometry relative="1" as="geometry" />
        </mxCell>
        <mxCell id="TRZYRDVv4xPQoLyUAHgP-144" value="" style="sketch=0;points=[[0,0,0],[0.25,0,0],[0.5,0,0],[0.75,0,0],[1,0,0],[0,1,0],[0.25,1,0],[0.5,1,0],[0.75,1,0],[1,1,0],[0,0.25,0],[0,0.5,0],[0,0.75,0],[1,0.25,0],[1,0.5,0],[1,0.75,0]];outlineConnect=0;fontColor=#232F3E;fillColor=#8C4FFF;strokeColor=#ffffff;dashed=0;verticalLabelPosition=bottom;verticalAlign=top;align=center;html=1;fontSize=12;fontStyle=0;aspect=fixed;shape=mxgraph.aws4.resourceIcon;resIcon=mxgraph.aws4.managed_streaming_for_kafka;" parent="1" vertex="1">
          <mxGeometry x="2311" y="1790" width="218" height="218" as="geometry" />
        </mxCell>
        <mxCell id="TRZYRDVv4xPQoLyUAHgP-154" value="" style="verticalAlign=top;verticalLabelPosition=bottom;labelPosition=center;align=center;html=1;outlineConnect=0;fillColor=#f8cecc;strokeColor=#b85450;gradientDirection=north;strokeWidth=2;shape=mxgraph.networks.mail_server;gradientColor=#ea6b66;" parent="1" vertex="1">
          <mxGeometry x="3680" y="2160" width="105" height="105" as="geometry" />
        </mxCell>
        <mxCell id="p0ilgyeI6ZEBC6Mqhe-d-142" style="edgeStyle=orthogonalEdgeStyle;rounded=0;orthogonalLoop=1;jettySize=auto;html=1;entryX=0.5;entryY=0;entryDx=0;entryDy=0;strokeWidth=3;" parent="1" source="p0ilgyeI6ZEBC6Mqhe-d-33" target="p0ilgyeI6ZEBC6Mqhe-d-2" edge="1">
          <mxGeometry relative="1" as="geometry">
            <Array as="points">
              <mxPoint x="3900" y="2340" />
              <mxPoint x="2183" y="2340" />
            </Array>
          </mxGeometry>
        </mxCell>
        <mxCell id="p0ilgyeI6ZEBC6Mqhe-d-33" value="&lt;span style=&quot;color: rgb(0, 0, 0);&quot;&gt;&lt;font style=&quot;font-size: 16px;&quot;&gt;auth-manager&lt;/font&gt;&lt;/span&gt;" style="rounded=0;whiteSpace=wrap;html=1;fillColor=#ffcd28;gradientColor=#ffa500;strokeColor=#d79b00;" parent="1" vertex="1">
          <mxGeometry x="3800" y="1220" width="200" height="60" as="geometry" />
        </mxCell>
        <mxCell id="p0ilgyeI6ZEBC6Mqhe-d-76" style="edgeStyle=orthogonalEdgeStyle;rounded=0;orthogonalLoop=1;jettySize=auto;html=1;entryX=0.5;entryY=0;entryDx=0;entryDy=0;entryPerimeter=0;strokeWidth=3;" parent="1" source="TRZYRDVv4xPQoLyUAHgP-58" target="TRZYRDVv4xPQoLyUAHgP-144" edge="1">
          <mxGeometry relative="1" as="geometry" />
        </mxCell>
        <mxCell id="p0ilgyeI6ZEBC6Mqhe-d-86" style="edgeStyle=orthogonalEdgeStyle;rounded=0;orthogonalLoop=1;jettySize=auto;html=1;entryX=0;entryY=0.5;entryDx=0;entryDy=0;entryPerimeter=0;strokeWidth=3;" parent="1" source="TRZYRDVv4xPQoLyUAHgP-65" target="TRZYRDVv4xPQoLyUAHgP-154" edge="1">
          <mxGeometry relative="1" as="geometry" />
        </mxCell>
        <mxCell id="p0ilgyeI6ZEBC6Mqhe-d-89" value="" style="group" parent="1" vertex="1" connectable="0">
          <mxGeometry x="220" y="1220" width="1005" height="333" as="geometry" />
        </mxCell>
        <mxCell id="TRZYRDVv4xPQoLyUAHgP-14" value="&lt;span style=&quot;color: rgb(0, 0, 0);&quot;&gt;&lt;font style=&quot;font-size: 16px;&quot;&gt;data-export-xlsx&lt;/font&gt;&lt;/span&gt;" style="rounded=0;whiteSpace=wrap;html=1;fillColor=#bac8d3;strokeColor=#23445d;" parent="p0ilgyeI6ZEBC6Mqhe-d-89" vertex="1">
          <mxGeometry x="199.99999999999997" y="273" width="200" height="60" as="geometry" />
        </mxCell>
        <mxCell id="TRZYRDVv4xPQoLyUAHgP-16" value="&lt;span style=&quot;color: rgb(0, 0, 0);&quot;&gt;&lt;font style=&quot;font-size: 16px;&quot;&gt;data-export-xml&lt;/font&gt;&lt;/span&gt;" style="rounded=0;whiteSpace=wrap;html=1;fillColor=#bac8d3;strokeColor=#23445d;" parent="p0ilgyeI6ZEBC6Mqhe-d-89" vertex="1">
          <mxGeometry x="605" y="273" width="200" height="60" as="geometry" />
        </mxCell>
        <mxCell id="TRZYRDVv4xPQoLyUAHgP-18" value="&lt;span style=&quot;color: rgb(0, 0, 0); font-size: 16px;&quot;&gt;data-export-csv&lt;/span&gt;" style="rounded=0;whiteSpace=wrap;html=1;fillColor=#dae8fc;strokeColor=#6c8ebf;" parent="p0ilgyeI6ZEBC6Mqhe-d-89" vertex="1">
          <mxGeometry x="805" y="180" width="200" height="60" as="geometry" />
        </mxCell>
        <mxCell id="TRZYRDVv4xPQoLyUAHgP-20" value="&lt;span style=&quot;color: rgb(0, 0, 0);&quot;&gt;&lt;font style=&quot;font-size: 16px;&quot;&gt;data-export-pdf&lt;/font&gt;&lt;/span&gt;" style="rounded=0;whiteSpace=wrap;html=1;fillColor=#dae8fc;strokeColor=#6c8ebf;" parent="p0ilgyeI6ZEBC6Mqhe-d-89" vertex="1">
          <mxGeometry y="180" width="200" height="60" as="geometry" />
        </mxCell>
        <mxCell id="TRZYRDVv4xPQoLyUAHgP-22" value="&lt;span style=&quot;color: rgb(0, 0, 0);&quot;&gt;&lt;font style=&quot;font-size: 16px;&quot;&gt;data-export-json&lt;/font&gt;&lt;/span&gt;" style="rounded=0;whiteSpace=wrap;html=1;fillColor=#dae8fc;strokeColor=#6c8ebf;" parent="p0ilgyeI6ZEBC6Mqhe-d-89" vertex="1">
          <mxGeometry x="400" y="180" width="200" height="60" as="geometry" />
        </mxCell>
        <mxCell id="p0ilgyeI6ZEBC6Mqhe-d-52" style="edgeStyle=orthogonalEdgeStyle;rounded=0;orthogonalLoop=1;jettySize=auto;html=1;entryX=0.5;entryY=0;entryDx=0;entryDy=0;strokeWidth=3;" parent="p0ilgyeI6ZEBC6Mqhe-d-89" source="p0ilgyeI6ZEBC6Mqhe-d-50" target="TRZYRDVv4xPQoLyUAHgP-22" edge="1">
          <mxGeometry relative="1" as="geometry" />
        </mxCell>
        <mxCell id="p0ilgyeI6ZEBC6Mqhe-d-53" style="edgeStyle=orthogonalEdgeStyle;rounded=0;orthogonalLoop=1;jettySize=auto;html=1;entryX=0.5;entryY=0;entryDx=0;entryDy=0;strokeWidth=3;" parent="p0ilgyeI6ZEBC6Mqhe-d-89" source="p0ilgyeI6ZEBC6Mqhe-d-50" target="TRZYRDVv4xPQoLyUAHgP-14" edge="1">
          <mxGeometry relative="1" as="geometry">
            <Array as="points">
              <mxPoint x="500" y="110" />
              <mxPoint x="300" y="110" />
            </Array>
          </mxGeometry>
        </mxCell>
        <mxCell id="p0ilgyeI6ZEBC6Mqhe-d-54" style="edgeStyle=orthogonalEdgeStyle;rounded=0;orthogonalLoop=1;jettySize=auto;html=1;entryX=0.5;entryY=0;entryDx=0;entryDy=0;strokeWidth=3;" parent="p0ilgyeI6ZEBC6Mqhe-d-89" source="p0ilgyeI6ZEBC6Mqhe-d-50" target="TRZYRDVv4xPQoLyUAHgP-20" edge="1">
          <mxGeometry relative="1" as="geometry">
            <Array as="points">
              <mxPoint x="500" y="110" />
              <mxPoint x="99.99999999999997" y="110" />
            </Array>
          </mxGeometry>
        </mxCell>
        <mxCell id="p0ilgyeI6ZEBC6Mqhe-d-55" style="edgeStyle=orthogonalEdgeStyle;rounded=0;orthogonalLoop=1;jettySize=auto;html=1;entryX=0.5;entryY=0;entryDx=0;entryDy=0;strokeWidth=3;" parent="p0ilgyeI6ZEBC6Mqhe-d-89" source="p0ilgyeI6ZEBC6Mqhe-d-50" target="TRZYRDVv4xPQoLyUAHgP-18" edge="1">
          <mxGeometry relative="1" as="geometry">
            <Array as="points">
              <mxPoint x="500" y="110" />
              <mxPoint x="905" y="110" />
            </Array>
          </mxGeometry>
        </mxCell>
        <mxCell id="p0ilgyeI6ZEBC6Mqhe-d-56" style="edgeStyle=orthogonalEdgeStyle;rounded=0;orthogonalLoop=1;jettySize=auto;html=1;entryX=0.5;entryY=0;entryDx=0;entryDy=0;strokeWidth=3;" parent="p0ilgyeI6ZEBC6Mqhe-d-89" source="p0ilgyeI6ZEBC6Mqhe-d-50" target="TRZYRDVv4xPQoLyUAHgP-16" edge="1">
          <mxGeometry relative="1" as="geometry">
            <Array as="points">
              <mxPoint x="500" y="110" />
              <mxPoint x="705" y="110" />
            </Array>
          </mxGeometry>
        </mxCell>
        <mxCell id="p0ilgyeI6ZEBC6Mqhe-d-50" value="&lt;font color=&quot;#000000&quot; style=&quot;font-size: 16px;&quot;&gt;data-export-manager&lt;/font&gt;" style="rounded=0;whiteSpace=wrap;html=1;fillColor=#ffcd28;gradientColor=#ffa500;strokeColor=#d79b00;" parent="p0ilgyeI6ZEBC6Mqhe-d-89" vertex="1">
          <mxGeometry x="400" width="200" height="60" as="geometry" />
        </mxCell>
        <mxCell id="p0ilgyeI6ZEBC6Mqhe-d-91" value="" style="group" parent="1" vertex="1" connectable="0">
          <mxGeometry x="1815" y="1220" width="200" height="230" as="geometry" />
        </mxCell>
        <mxCell id="TRZYRDVv4xPQoLyUAHgP-8" value="&lt;font style=&quot;font-size: 16px;&quot; color=&quot;#000000&quot;&gt;receipt-generator&lt;/font&gt;" style="rounded=0;whiteSpace=wrap;html=1;fillColor=#dae8fc;strokeColor=#6c8ebf;" parent="p0ilgyeI6ZEBC6Mqhe-d-91" vertex="1">
          <mxGeometry y="170" width="200" height="60" as="geometry" />
        </mxCell>
        <mxCell id="p0ilgyeI6ZEBC6Mqhe-d-61" style="edgeStyle=orthogonalEdgeStyle;rounded=0;orthogonalLoop=1;jettySize=auto;html=1;entryX=0.5;entryY=0;entryDx=0;entryDy=0;strokeWidth=3;" parent="p0ilgyeI6ZEBC6Mqhe-d-91" source="m2Rx3y2PIeW7X46C0TxE-1" target="TRZYRDVv4xPQoLyUAHgP-8" edge="1">
          <mxGeometry relative="1" as="geometry" />
        </mxCell>
        <mxCell id="m2Rx3y2PIeW7X46C0TxE-1" value="&lt;font color=&quot;#000000&quot; style=&quot;font-size: 16px;&quot;&gt;data-reporting-manager&lt;/font&gt;" style="rounded=0;whiteSpace=wrap;html=1;fillColor=#ffcd28;gradientColor=#ffa500;strokeColor=#d79b00;" parent="p0ilgyeI6ZEBC6Mqhe-d-91" vertex="1">
          <mxGeometry width="200" height="60" as="geometry" />
        </mxCell>
        <mxCell id="p0ilgyeI6ZEBC6Mqhe-d-93" value="" style="group" parent="1" vertex="1" connectable="0">
          <mxGeometry x="2120" y="1220" width="600" height="333" as="geometry" />
        </mxCell>
        <mxCell id="TRZYRDVv4xPQoLyUAHgP-97" value="&lt;font style=&quot;font-size: 16px;&quot; color=&quot;#000000&quot;&gt;modify-update-sales&lt;/font&gt;" style="rounded=0;whiteSpace=wrap;html=1;fillColor=#dae8fc;strokeColor=#6c8ebf;rotation=0;" parent="p0ilgyeI6ZEBC6Mqhe-d-93" vertex="1">
          <mxGeometry x="200" y="160" width="200" height="60" as="geometry" />
        </mxCell>
        <mxCell id="TRZYRDVv4xPQoLyUAHgP-99" value="&lt;span style=&quot;color: rgb(0, 0, 0);&quot;&gt;&lt;font style=&quot;font-size: 16px;&quot;&gt;modify-delete-elasticOrders&lt;/font&gt;&lt;/span&gt;" style="rounded=0;whiteSpace=wrap;html=1;rotation=0;fillColor=#bac8d3;strokeColor=#23445d;" parent="p0ilgyeI6ZEBC6Mqhe-d-93" vertex="1">
          <mxGeometry y="273" width="200" height="60" as="geometry" />
        </mxCell>
        <mxCell id="TRZYRDVv4xPQoLyUAHgP-103" value="&lt;span style=&quot;color: rgb(0, 0, 0);&quot;&gt;&lt;font style=&quot;font-size: 16px;&quot;&gt;modify-elasticOrders-manager&lt;/font&gt;&lt;/span&gt;" style="rounded=0;whiteSpace=wrap;html=1;fillColor=#ffcd28;gradientColor=#ffa500;strokeColor=#d79b00;" parent="p0ilgyeI6ZEBC6Mqhe-d-93" vertex="1">
          <mxGeometry x="200" width="200" height="60" as="geometry" />
        </mxCell>
        <mxCell id="TRZYRDVv4xPQoLyUAHgP-105" value="&lt;font style=&quot;font-size: 16px;&quot; color=&quot;#000000&quot;&gt;modify-save-sales&lt;/font&gt;" style="rounded=0;whiteSpace=wrap;html=1;rotation=0;fillColor=#bac8d3;strokeColor=#23445d;" parent="p0ilgyeI6ZEBC6Mqhe-d-93" vertex="1">
          <mxGeometry x="400" y="273" width="200" height="60" as="geometry" />
        </mxCell>
        <mxCell id="p0ilgyeI6ZEBC6Mqhe-d-62" style="edgeStyle=orthogonalEdgeStyle;rounded=0;orthogonalLoop=1;jettySize=auto;html=1;entryX=0.5;entryY=0;entryDx=0;entryDy=0;strokeWidth=3;" parent="p0ilgyeI6ZEBC6Mqhe-d-93" source="TRZYRDVv4xPQoLyUAHgP-103" target="TRZYRDVv4xPQoLyUAHgP-97" edge="1">
          <mxGeometry relative="1" as="geometry" />
        </mxCell>
        <mxCell id="p0ilgyeI6ZEBC6Mqhe-d-63" style="edgeStyle=orthogonalEdgeStyle;rounded=0;orthogonalLoop=1;jettySize=auto;html=1;entryX=0.453;entryY=-0.008;entryDx=0;entryDy=0;entryPerimeter=0;strokeWidth=3;" parent="p0ilgyeI6ZEBC6Mqhe-d-93" source="TRZYRDVv4xPQoLyUAHgP-103" target="TRZYRDVv4xPQoLyUAHgP-99" edge="1">
          <mxGeometry relative="1" as="geometry">
            <Array as="points">
              <mxPoint x="300" y="100" />
              <mxPoint x="91" y="100" />
            </Array>
          </mxGeometry>
        </mxCell>
        <mxCell id="p0ilgyeI6ZEBC6Mqhe-d-64" style="edgeStyle=orthogonalEdgeStyle;rounded=0;orthogonalLoop=1;jettySize=auto;html=1;entryX=0.5;entryY=0;entryDx=0;entryDy=0;strokeWidth=3;" parent="p0ilgyeI6ZEBC6Mqhe-d-93" source="TRZYRDVv4xPQoLyUAHgP-103" target="TRZYRDVv4xPQoLyUAHgP-105" edge="1">
          <mxGeometry relative="1" as="geometry">
            <Array as="points">
              <mxPoint x="300" y="100" />
              <mxPoint x="500" y="100" />
            </Array>
          </mxGeometry>
        </mxCell>
        <mxCell id="p0ilgyeI6ZEBC6Mqhe-d-104" value="" style="group" parent="1" vertex="1" connectable="0">
          <mxGeometry x="2800" y="1220" width="400" height="333" as="geometry" />
        </mxCell>
        <mxCell id="TRZYRDVv4xPQoLyUAHgP-107" value="&lt;font style=&quot;font-size: 16px;&quot; color=&quot;#000000&quot;&gt;audit-save&lt;/font&gt;" style="rounded=0;whiteSpace=wrap;html=1;fillColor=#bac8d3;strokeColor=#23445d;" parent="p0ilgyeI6ZEBC6Mqhe-d-104" vertex="1">
          <mxGeometry x="200" y="273" width="200" height="60" as="geometry" />
        </mxCell>
        <mxCell id="TRZYRDVv4xPQoLyUAHgP-109" value="&lt;span style=&quot;color: rgb(0, 0, 0);&quot;&gt;&lt;font style=&quot;font-size: 16px;&quot;&gt;audit-search&lt;/font&gt;&lt;/span&gt;" style="rounded=0;whiteSpace=wrap;html=1;fillColor=#dae8fc;strokeColor=#6c8ebf;" parent="p0ilgyeI6ZEBC6Mqhe-d-104" vertex="1">
          <mxGeometry y="150" width="200" height="60" as="geometry" />
        </mxCell>
        <mxCell id="p0ilgyeI6ZEBC6Mqhe-d-75" style="edgeStyle=orthogonalEdgeStyle;rounded=0;orthogonalLoop=1;jettySize=auto;html=1;entryX=0.5;entryY=0;entryDx=0;entryDy=0;strokeWidth=3;" parent="p0ilgyeI6ZEBC6Mqhe-d-104" source="TRZYRDVv4xPQoLyUAHgP-112" target="TRZYRDVv4xPQoLyUAHgP-107" edge="1">
          <mxGeometry relative="1" as="geometry">
            <Array as="points">
              <mxPoint x="100" y="110" />
              <mxPoint x="300" y="110" />
            </Array>
          </mxGeometry>
        </mxCell>
        <mxCell id="TRZYRDVv4xPQoLyUAHgP-112" value="&lt;span style=&quot;color: rgb(0, 0, 0);&quot;&gt;&lt;font style=&quot;font-size: 16px;&quot;&gt;audit-manager&lt;/font&gt;&lt;/span&gt;" style="rounded=0;whiteSpace=wrap;html=1;fillColor=#ffcd28;gradientColor=#ffa500;strokeColor=#d79b00;" parent="p0ilgyeI6ZEBC6Mqhe-d-104" vertex="1">
          <mxGeometry width="200" height="60" as="geometry" />
        </mxCell>
        <mxCell id="p0ilgyeI6ZEBC6Mqhe-d-73" style="edgeStyle=orthogonalEdgeStyle;rounded=0;orthogonalLoop=1;jettySize=auto;html=1;entryX=0.5;entryY=0;entryDx=0;entryDy=0;strokeWidth=3;" parent="p0ilgyeI6ZEBC6Mqhe-d-104" source="TRZYRDVv4xPQoLyUAHgP-112" target="TRZYRDVv4xPQoLyUAHgP-109" edge="1">
          <mxGeometry relative="1" as="geometry" />
        </mxCell>
        <mxCell id="p0ilgyeI6ZEBC6Mqhe-d-106" value="" style="group" parent="1" vertex="1" connectable="0">
          <mxGeometry x="2020" y="1630" width="780" height="110" as="geometry" />
        </mxCell>
        <mxCell id="TRZYRDVv4xPQoLyUAHgP-58" value="&lt;font style=&quot;font-size: 16px;&quot; color=&quot;#000000&quot;&gt;kafka-elasticOrders-producer&lt;br&gt;&lt;/font&gt;" style="rounded=0;whiteSpace=wrap;html=1;fillColor=#d5e8d4;gradientColor=#97d077;strokeColor=#82b366;rotation=0;" parent="p0ilgyeI6ZEBC6Mqhe-d-106" vertex="1">
          <mxGeometry x="300" width="200" height="60" as="geometry" />
        </mxCell>
        <mxCell id="TRZYRDVv4xPQoLyUAHgP-59" value="&lt;span style=&quot;color: rgb(0, 0, 0);&quot;&gt;&lt;font style=&quot;font-size: 16px;&quot;&gt;metrics-collector&lt;/font&gt;&lt;/span&gt;" style="rounded=0;whiteSpace=wrap;html=1;fillColor=#b0e3e6;strokeColor=#0e8088;" parent="p0ilgyeI6ZEBC6Mqhe-d-106" vertex="1">
          <mxGeometry width="200" height="60" as="geometry" />
        </mxCell>
        <mxCell id="TRZYRDVv4xPQoLyUAHgP-167" value="&lt;font style=&quot;font-size: 16px;&quot;&gt;&lt;font style=&quot;font-size: 16px;&quot; color=&quot;#000000&quot;&gt;metrics&lt;/font&gt;&lt;font style=&quot;font-size: 16px;&quot; color=&quot;#000000&quot;&gt;-stream-pocessor&lt;/font&gt;&lt;/font&gt;" style="rounded=0;whiteSpace=wrap;html=1;fillColor=#e6d0de;gradientColor=#d5739d;strokeColor=#996185;" parent="p0ilgyeI6ZEBC6Mqhe-d-106" vertex="1">
          <mxGeometry x="580" width="200" height="60" as="geometry" />
        </mxCell>
        <mxCell id="p0ilgyeI6ZEBC6Mqhe-d-87" style="edgeStyle=orthogonalEdgeStyle;rounded=0;orthogonalLoop=1;jettySize=auto;html=1;entryX=0.5;entryY=0;entryDx=0;entryDy=0;entryPerimeter=0;strokeWidth=3;" parent="p0ilgyeI6ZEBC6Mqhe-d-106" source="TRZYRDVv4xPQoLyUAHgP-59" target="TRZYRDVv4xPQoLyUAHgP-144" edge="1">
          <mxGeometry relative="1" as="geometry">
            <Array as="points">
              <mxPoint x="100" y="110" />
              <mxPoint x="400" y="110" />
            </Array>
          </mxGeometry>
        </mxCell>
        <mxCell id="p0ilgyeI6ZEBC6Mqhe-d-88" style="edgeStyle=orthogonalEdgeStyle;rounded=0;orthogonalLoop=1;jettySize=auto;html=1;entryX=0.5;entryY=0;entryDx=0;entryDy=0;entryPerimeter=0;strokeWidth=3;" parent="p0ilgyeI6ZEBC6Mqhe-d-106" source="TRZYRDVv4xPQoLyUAHgP-167" target="TRZYRDVv4xPQoLyUAHgP-144" edge="1">
          <mxGeometry relative="1" as="geometry">
            <Array as="points">
              <mxPoint x="680" y="110" />
              <mxPoint x="400" y="110" />
            </Array>
          </mxGeometry>
        </mxCell>
        <mxCell id="p0ilgyeI6ZEBC6Mqhe-d-80" style="edgeStyle=orthogonalEdgeStyle;rounded=0;orthogonalLoop=1;jettySize=auto;html=1;entryX=0.5;entryY=0;entryDx=0;entryDy=0;strokeWidth=3;" parent="1" source="TRZYRDVv4xPQoLyUAHgP-97" target="TRZYRDVv4xPQoLyUAHgP-58" edge="1">
          <mxGeometry relative="1" as="geometry" />
        </mxCell>
        <mxCell id="p0ilgyeI6ZEBC6Mqhe-d-81" style="edgeStyle=orthogonalEdgeStyle;rounded=0;orthogonalLoop=1;jettySize=auto;html=1;entryX=0.5;entryY=0;entryDx=0;entryDy=0;strokeWidth=3;" parent="1" source="TRZYRDVv4xPQoLyUAHgP-99" target="TRZYRDVv4xPQoLyUAHgP-58" edge="1">
          <mxGeometry relative="1" as="geometry" />
        </mxCell>
        <mxCell id="p0ilgyeI6ZEBC6Mqhe-d-108" value="" style="group" parent="1" vertex="1" connectable="0">
          <mxGeometry x="3199.9999999999995" y="1220" width="200.00000000000045" height="210" as="geometry" />
        </mxCell>
        <mxCell id="TRZYRDVv4xPQoLyUAHgP-10" value="&lt;span style=&quot;color: rgb(0, 0, 0); font-size: 16px;&quot;&gt;metrics-fetch&lt;/span&gt;" style="rounded=0;whiteSpace=wrap;html=1;fillColor=#dae8fc;strokeColor=#6c8ebf;" parent="p0ilgyeI6ZEBC6Mqhe-d-108" vertex="1">
          <mxGeometry x="4.547473508864641e-13" y="150" width="200" height="60" as="geometry" />
        </mxCell>
        <mxCell id="p0ilgyeI6ZEBC6Mqhe-d-74" style="edgeStyle=orthogonalEdgeStyle;rounded=0;orthogonalLoop=1;jettySize=auto;html=1;entryX=0.5;entryY=0;entryDx=0;entryDy=0;strokeWidth=3;" parent="p0ilgyeI6ZEBC6Mqhe-d-108" source="TRZYRDVv4xPQoLyUAHgP-41" target="TRZYRDVv4xPQoLyUAHgP-10" edge="1">
          <mxGeometry relative="1" as="geometry" />
        </mxCell>
        <mxCell id="TRZYRDVv4xPQoLyUAHgP-41" value="&lt;span style=&quot;color: rgb(0, 0, 0);&quot;&gt;&lt;font style=&quot;font-size: 16px;&quot;&gt;dashboard-manager&lt;/font&gt;&lt;/span&gt;" style="rounded=0;whiteSpace=wrap;html=1;fillColor=#ffcd28;gradientColor=#ffa500;strokeColor=#d79b00;" parent="p0ilgyeI6ZEBC6Mqhe-d-108" vertex="1">
          <mxGeometry width="200" height="60" as="geometry" />
        </mxCell>
        <mxCell id="p0ilgyeI6ZEBC6Mqhe-d-112" style="edgeStyle=orthogonalEdgeStyle;rounded=0;orthogonalLoop=1;jettySize=auto;html=1;entryX=0;entryY=0.5;entryDx=0;entryDy=0;entryPerimeter=0;strokeWidth=3;" parent="1" source="TRZYRDVv4xPQoLyUAHgP-57" target="TRZYRDVv4xPQoLyUAHgP-144" edge="1">
          <mxGeometry relative="1" as="geometry" />
        </mxCell>
        <mxCell id="p0ilgyeI6ZEBC6Mqhe-d-113" style="edgeStyle=orthogonalEdgeStyle;rounded=0;orthogonalLoop=1;jettySize=auto;html=1;entryX=1;entryY=0.5;entryDx=0;entryDy=0;entryPerimeter=0;strokeWidth=3;" parent="1" source="TRZYRDVv4xPQoLyUAHgP-5" target="TRZYRDVv4xPQoLyUAHgP-144" edge="1">
          <mxGeometry relative="1" as="geometry" />
        </mxCell>
        <mxCell id="TRZYRDVv4xPQoLyUAHgP-64" value="&lt;span style=&quot;color: rgb(0, 0, 0); font-size: 16px;&quot;&gt;data-notifier-manager&lt;/span&gt;" style="rounded=0;whiteSpace=wrap;html=1;fillColor=#cce5ff;strokeColor=#36393d;fontSize=19;" parent="1" vertex="1">
          <mxGeometry x="927.5699999999999" y="2600" width="210" height="60" as="geometry" />
        </mxCell>
        <mxCell id="TRZYRDVv4xPQoLyUAHgP-69" value="&lt;font color=&quot;#000000&quot;&gt;&lt;span style=&quot;font-size: 16px;&quot;&gt;data-delete-search-elasticOrders&lt;/span&gt;&lt;/font&gt;" style="rounded=0;whiteSpace=wrap;html=1;fillColor=#d5e8d4;strokeColor=#82b366;fontSize=19;gradientColor=#97d077;" parent="1" vertex="1">
          <mxGeometry x="1132.57" y="2860" width="200" height="60" as="geometry" />
        </mxCell>
        <mxCell id="p0ilgyeI6ZEBC6Mqhe-d-9" style="edgeStyle=orthogonalEdgeStyle;rounded=0;orthogonalLoop=1;jettySize=auto;html=1;entryX=0.5;entryY=0;entryDx=0;entryDy=0;strokeWidth=3;" parent="1" source="TRZYRDVv4xPQoLyUAHgP-73" target="TRZYRDVv4xPQoLyUAHgP-75" edge="1">
          <mxGeometry relative="1" as="geometry" />
        </mxCell>
        <mxCell id="p0ilgyeI6ZEBC6Mqhe-d-10" style="edgeStyle=orthogonalEdgeStyle;rounded=0;orthogonalLoop=1;jettySize=auto;html=1;entryX=0.5;entryY=0;entryDx=0;entryDy=0;strokeWidth=3;" parent="1" source="TRZYRDVv4xPQoLyUAHgP-73" target="TRZYRDVv4xPQoLyUAHgP-74" edge="1">
          <mxGeometry relative="1" as="geometry">
            <Array as="points">
              <mxPoint x="1432.5700000000002" y="2700" />
              <mxPoint x="1032.57" y="2700" />
            </Array>
          </mxGeometry>
        </mxCell>
        <mxCell id="p0ilgyeI6ZEBC6Mqhe-d-11" style="edgeStyle=orthogonalEdgeStyle;rounded=0;orthogonalLoop=1;jettySize=auto;html=1;entryX=0.5;entryY=0;entryDx=0;entryDy=0;strokeWidth=3;" parent="1" source="TRZYRDVv4xPQoLyUAHgP-73" target="TRZYRDVv4xPQoLyUAHgP-69" edge="1">
          <mxGeometry relative="1" as="geometry">
            <Array as="points">
              <mxPoint x="1432.5700000000002" y="2700" />
              <mxPoint x="1232.5700000000002" y="2700" />
            </Array>
          </mxGeometry>
        </mxCell>
        <mxCell id="TRZYRDVv4xPQoLyUAHgP-73" value="&lt;span style=&quot;color: rgb(0, 0, 0);&quot;&gt;&lt;font style=&quot;font-size: 16px;&quot;&gt;data-delete-elasticOrders-manager&lt;/font&gt;&lt;/span&gt;" style="rounded=0;whiteSpace=wrap;html=1;fillColor=#cce5ff;strokeColor=#36393d;" parent="1" vertex="1">
          <mxGeometry x="1332.5700000000002" y="2600" width="200" height="60" as="geometry" />
        </mxCell>
        <mxCell id="TRZYRDVv4xPQoLyUAHgP-74" value="&lt;font color=&quot;#000000&quot;&gt;&lt;span style=&quot;font-size: 16px;&quot;&gt;data-delete-mongoOrder&lt;/span&gt;&lt;/font&gt;" style="rounded=0;whiteSpace=wrap;html=1;fillColor=#d5e8d4;strokeColor=#82b366;fontSize=19;gradientColor=#97d077;" parent="1" vertex="1">
          <mxGeometry x="932.5699999999999" y="2760" width="200" height="60" as="geometry" />
        </mxCell>
        <mxCell id="TRZYRDVv4xPQoLyUAHgP-75" value="&lt;font color=&quot;#000000&quot;&gt;&lt;span style=&quot;font-size: 16px;&quot;&gt;data-delete-elasticOrders&lt;/span&gt;&lt;/font&gt;" style="rounded=0;whiteSpace=wrap;html=1;fillColor=#d5e8d4;strokeColor=#82b366;fontSize=19;gradientColor=#97d077;" parent="1" vertex="1">
          <mxGeometry x="1332.5700000000002" y="2760" width="200" height="60" as="geometry" />
        </mxCell>
        <mxCell id="TRZYRDVv4xPQoLyUAHgP-76" value="&lt;font color=&quot;#000000&quot;&gt;&lt;span style=&quot;font-size: 16px;&quot;&gt;data-save-mongoOrder&lt;/span&gt;&lt;/font&gt;" style="rounded=0;whiteSpace=wrap;html=1;fillColor=#d5e8d4;strokeColor=#82b366;fontSize=19;gradientColor=#97d077;" parent="1" vertex="1">
          <mxGeometry x="1507.5700000000002" y="2860" width="200" height="60" as="geometry" />
        </mxCell>
        <mxCell id="p0ilgyeI6ZEBC6Mqhe-d-12" style="edgeStyle=orthogonalEdgeStyle;rounded=0;orthogonalLoop=1;jettySize=auto;html=1;entryX=0.5;entryY=0;entryDx=0;entryDy=0;strokeWidth=3;" parent="1" source="TRZYRDVv4xPQoLyUAHgP-79" target="TRZYRDVv4xPQoLyUAHgP-80" edge="1">
          <mxGeometry relative="1" as="geometry" />
        </mxCell>
        <mxCell id="TRZYRDVv4xPQoLyUAHgP-79" value="&lt;span style=&quot;color: rgb(0, 0, 0);&quot;&gt;&lt;font style=&quot;font-size: 16px;&quot;&gt;data-save-elasticOrders-manager&lt;/font&gt;&lt;/span&gt;" style="rounded=0;whiteSpace=wrap;html=1;fillColor=#cce5ff;strokeColor=#36393d;" parent="1" vertex="1">
          <mxGeometry x="1707.57" y="2600" width="200" height="60" as="geometry" />
        </mxCell>
        <mxCell id="TRZYRDVv4xPQoLyUAHgP-80" value="&lt;font color=&quot;#000000&quot;&gt;&lt;span style=&quot;font-size: 16px;&quot;&gt;data-save-elasticOrders&lt;/span&gt;&lt;/font&gt;" style="rounded=0;whiteSpace=wrap;html=1;fillColor=#d5e8d4;strokeColor=#82b366;fontSize=19;gradientColor=#97d077;" parent="1" vertex="1">
          <mxGeometry x="1707.57" y="2760" width="200" height="60" as="geometry" />
        </mxCell>
        <mxCell id="TRZYRDVv4xPQoLyUAHgP-81" value="&lt;font color=&quot;#000000&quot;&gt;&lt;span style=&quot;font-size: 16px;&quot;&gt;data-get-search-elasticOrders&lt;/span&gt;&lt;/font&gt;" style="rounded=0;whiteSpace=wrap;html=1;fillColor=#d5e8d4;strokeColor=#82b366;fontSize=19;gradientColor=#97d077;" parent="1" vertex="1">
          <mxGeometry x="2082.5699999999997" y="2760" width="200" height="60" as="geometry" />
        </mxCell>
        <mxCell id="p0ilgyeI6ZEBC6Mqhe-d-43" style="edgeStyle=orthogonalEdgeStyle;rounded=0;orthogonalLoop=1;jettySize=auto;html=1;strokeWidth=3;" parent="1" source="TRZYRDVv4xPQoLyUAHgP-82" target="nKXd45dQNLn1FB5D1kFg-4" edge="1">
          <mxGeometry relative="1" as="geometry">
            <Array as="points">
              <mxPoint x="2380" y="3120" />
              <mxPoint x="2566" y="3120" />
            </Array>
          </mxGeometry>
        </mxCell>
        <mxCell id="TRZYRDVv4xPQoLyUAHgP-82" value="&lt;span style=&quot;color: rgb(0, 0, 0); font-size: 16px;&quot;&gt;data-get-opeartion-elasticOrders&lt;/span&gt;" style="rounded=0;whiteSpace=wrap;html=1;fillColor=#d5e8d4;strokeColor=#82b366;fontSize=19;gradientColor=#97d077;" parent="1" vertex="1">
          <mxGeometry x="2282.5699999999997" y="2860" width="200" height="60" as="geometry" />
        </mxCell>
        <mxCell id="TRZYRDVv4xPQoLyUAHgP-83" value="&lt;span style=&quot;color: rgb(0, 0, 0); font-size: 16px;&quot;&gt;data-get-free-elasticOrders&lt;/span&gt;" style="rounded=0;whiteSpace=wrap;html=1;fillColor=#d5e8d4;strokeColor=#82b366;fontSize=19;gradientColor=#97d077;" parent="1" vertex="1">
          <mxGeometry x="1882.57" y="2860" width="200" height="60" as="geometry" />
        </mxCell>
        <mxCell id="p0ilgyeI6ZEBC6Mqhe-d-14" style="edgeStyle=orthogonalEdgeStyle;rounded=0;orthogonalLoop=1;jettySize=auto;html=1;entryX=0.5;entryY=0;entryDx=0;entryDy=0;strokeWidth=3;" parent="1" source="TRZYRDVv4xPQoLyUAHgP-87" target="TRZYRDVv4xPQoLyUAHgP-81" edge="1">
          <mxGeometry relative="1" as="geometry" />
        </mxCell>
        <mxCell id="p0ilgyeI6ZEBC6Mqhe-d-16" style="edgeStyle=orthogonalEdgeStyle;rounded=0;orthogonalLoop=1;jettySize=auto;html=1;entryX=0.5;entryY=0;entryDx=0;entryDy=0;strokeWidth=3;" parent="1" source="TRZYRDVv4xPQoLyUAHgP-87" target="TRZYRDVv4xPQoLyUAHgP-82" edge="1">
          <mxGeometry relative="1" as="geometry">
            <Array as="points">
              <mxPoint x="2182.5699999999997" y="2710" />
              <mxPoint x="2382.5699999999997" y="2710" />
            </Array>
          </mxGeometry>
        </mxCell>
        <mxCell id="TRZYRDVv4xPQoLyUAHgP-87" value="&lt;span style=&quot;color: rgb(0, 0, 0);&quot;&gt;&lt;font style=&quot;font-size: 16px;&quot;&gt;data-get-elasticOrders-manager&lt;/font&gt;&lt;/span&gt;" style="rounded=0;whiteSpace=wrap;html=1;fillColor=#cce5ff;strokeColor=#36393d;fontSize=18;" parent="1" vertex="1">
          <mxGeometry x="2082.5699999999997" y="2600" width="200" height="60" as="geometry" />
        </mxCell>
        <mxCell id="TRZYRDVv4xPQoLyUAHgP-88" value="&lt;font color=&quot;#000000&quot;&gt;&lt;span style=&quot;font-size: 16px;&quot;&gt;data-update-mongoOrder&lt;/span&gt;&lt;/font&gt;" style="rounded=0;whiteSpace=wrap;html=1;fillColor=#d5e8d4;strokeColor=#82b366;fontSize=19;gradientColor=#97d077;" parent="1" vertex="1">
          <mxGeometry x="2457.5699999999997" y="2760" width="200" height="60" as="geometry" />
        </mxCell>
        <mxCell id="p0ilgyeI6ZEBC6Mqhe-d-17" style="edgeStyle=orthogonalEdgeStyle;rounded=0;orthogonalLoop=1;jettySize=auto;html=1;entryX=0.5;entryY=0;entryDx=0;entryDy=0;" parent="1" source="TRZYRDVv4xPQoLyUAHgP-91" target="TRZYRDVv4xPQoLyUAHgP-88" edge="1">
          <mxGeometry relative="1" as="geometry" />
        </mxCell>
        <mxCell id="p0ilgyeI6ZEBC6Mqhe-d-18" style="edgeStyle=orthogonalEdgeStyle;rounded=0;orthogonalLoop=1;jettySize=auto;html=1;entryX=0.5;entryY=0;entryDx=0;entryDy=0;strokeWidth=3;" parent="1" source="TRZYRDVv4xPQoLyUAHgP-91" target="TRZYRDVv4xPQoLyUAHgP-92" edge="1">
          <mxGeometry relative="1" as="geometry">
            <Array as="points">
              <mxPoint x="2557.5699999999997" y="2710" />
              <mxPoint x="2757.57" y="2710" />
            </Array>
          </mxGeometry>
        </mxCell>
        <mxCell id="TRZYRDVv4xPQoLyUAHgP-91" value="&lt;span style=&quot;color: rgb(0, 0, 0);&quot;&gt;&lt;font style=&quot;font-size: 16px;&quot;&gt;data-update-elasticOrders-manager&lt;/font&gt;&lt;/span&gt;" style="rounded=0;whiteSpace=wrap;html=1;fillColor=#cce5ff;strokeColor=#36393d;" parent="1" vertex="1">
          <mxGeometry x="2457.5699999999997" y="2600" width="200" height="60" as="geometry" />
        </mxCell>
        <mxCell id="TRZYRDVv4xPQoLyUAHgP-92" value="&lt;font color=&quot;#000000&quot;&gt;&lt;span style=&quot;font-size: 16px;&quot;&gt;data-update-elasticOrders&lt;/span&gt;&lt;/font&gt;" style="rounded=0;whiteSpace=wrap;html=1;fillColor=#d5e8d4;strokeColor=#82b366;fontSize=19;gradientColor=#97d077;" parent="1" vertex="1">
          <mxGeometry x="2657.5699999999997" y="2860" width="200" height="60" as="geometry" />
        </mxCell>
        <mxCell id="TRZYRDVv4xPQoLyUAHgP-113" value="&lt;font style=&quot;font-size: 16px;&quot;&gt;&lt;span style=&quot;color: rgb(0, 0, 0);&quot;&gt;auth-users-manager&lt;/span&gt;&lt;/font&gt;" style="rounded=0;whiteSpace=wrap;html=1;fillColor=#d5e8d4;strokeColor=#82b366;fontSize=19;gradientColor=#97d077;" parent="1" vertex="1">
          <mxGeometry x="3220" y="2760" width="200" height="60" as="geometry" />
        </mxCell>
        <mxCell id="TRZYRDVv4xPQoLyUAHgP-115" value="&lt;font style=&quot;font-size: 16px;&quot;&gt;&lt;span style=&quot;color: rgb(0, 0, 0);&quot;&gt;auth-profile-manager&lt;/span&gt;&lt;/font&gt;" style="rounded=0;whiteSpace=wrap;html=1;fillColor=#d5e8d4;gradientColor=#97d077;strokeColor=#82b366;fontSize=19;" parent="1" vertex="1">
          <mxGeometry x="3420" y="2860" width="200" height="60" as="geometry" />
        </mxCell>
        <mxCell id="p0ilgyeI6ZEBC6Mqhe-d-34" style="edgeStyle=orthogonalEdgeStyle;rounded=0;orthogonalLoop=1;jettySize=auto;html=1;entryX=0.5;entryY=0;entryDx=0;entryDy=0;" parent="1" source="TRZYRDVv4xPQoLyUAHgP-118" target="TRZYRDVv4xPQoLyUAHgP-113" edge="1">
          <mxGeometry relative="1" as="geometry" />
        </mxCell>
        <mxCell id="p0ilgyeI6ZEBC6Mqhe-d-35" style="edgeStyle=orthogonalEdgeStyle;rounded=0;orthogonalLoop=1;jettySize=auto;html=1;entryX=0.5;entryY=0;entryDx=0;entryDy=0;strokeWidth=3;" parent="1" source="TRZYRDVv4xPQoLyUAHgP-118" target="m2Rx3y2PIeW7X46C0TxE-6" edge="1">
          <mxGeometry relative="1" as="geometry">
            <Array as="points">
              <mxPoint x="3320" y="2710" />
              <mxPoint x="3120" y="2710" />
            </Array>
          </mxGeometry>
        </mxCell>
        <mxCell id="p0ilgyeI6ZEBC6Mqhe-d-36" style="edgeStyle=orthogonalEdgeStyle;rounded=0;orthogonalLoop=1;jettySize=auto;html=1;entryX=0.5;entryY=0;entryDx=0;entryDy=0;strokeWidth=3;" parent="1" source="TRZYRDVv4xPQoLyUAHgP-118" target="TRZYRDVv4xPQoLyUAHgP-115" edge="1">
          <mxGeometry relative="1" as="geometry">
            <Array as="points">
              <mxPoint x="3320" y="2710" />
              <mxPoint x="3520" y="2710" />
            </Array>
          </mxGeometry>
        </mxCell>
        <mxCell id="TRZYRDVv4xPQoLyUAHgP-118" value="&lt;span style=&quot;color: rgb(0, 0, 0);&quot;&gt;&lt;font style=&quot;font-size: 16px;&quot;&gt;data-auth-manager&lt;/font&gt;&lt;/span&gt;" style="rounded=0;whiteSpace=wrap;html=1;fillColor=#cce5ff;strokeColor=#36393d;" parent="1" vertex="1">
          <mxGeometry x="3220" y="2600" width="200" height="60" as="geometry" />
        </mxCell>
        <mxCell id="TRZYRDVv4xPQoLyUAHgP-162" value="" style="outlineConnect=0;dashed=0;verticalLabelPosition=bottom;verticalAlign=top;align=center;html=1;shape=mxgraph.aws3.redis;fillColor=#2E73B8;gradientColor=none;" parent="1" vertex="1">
          <mxGeometry x="3750" y="3220" width="140" height="150" as="geometry" />
        </mxCell>
        <mxCell id="p0ilgyeI6ZEBC6Mqhe-d-70" style="edgeStyle=orthogonalEdgeStyle;rounded=0;orthogonalLoop=1;jettySize=auto;html=1;strokeWidth=3;" parent="1" source="TRZYRDVv4xPQoLyUAHgP-165" target="TRZYRDVv4xPQoLyUAHgP-162" edge="1">
          <mxGeometry relative="1" as="geometry" />
        </mxCell>
        <mxCell id="TRZYRDVv4xPQoLyUAHgP-165" value="&lt;span style=&quot;color: rgb(0, 0, 0); font-size: 16px;&quot;&gt;redis-manager&lt;/span&gt;" style="rounded=0;whiteSpace=wrap;html=1;fillColor=#cce5ff;strokeColor=#36393d;" parent="1" vertex="1">
          <mxGeometry x="3720" y="2600" width="200" height="60" as="geometry" />
        </mxCell>
        <mxCell id="m2Rx3y2PIeW7X46C0TxE-6" value="&lt;font style=&quot;font-size: 16px;&quot;&gt;&lt;span style=&quot;color: rgb(0, 0, 0);&quot;&gt;auth-clients-manager&lt;/span&gt;&lt;/font&gt;" style="rounded=0;whiteSpace=wrap;html=1;fillColor=#d5e8d4;gradientColor=#97d077;strokeColor=#82b366;fontSize=19;" parent="1" vertex="1">
          <mxGeometry x="3020" y="2860" width="200" height="60" as="geometry" />
        </mxCell>
        <mxCell id="nKXd45dQNLn1FB5D1kFg-4" value="" style="outlineConnect=0;dashed=0;verticalLabelPosition=bottom;verticalAlign=top;align=center;html=1;shape=mxgraph.aws3.elasticsearch_service;fillColor=#F58534;gradientColor=none;" parent="1" vertex="1">
          <mxGeometry x="2520" y="3243.5" width="91.25" height="123" as="geometry" />
        </mxCell>
        <mxCell id="nKXd45dQNLn1FB5D1kFg-5" value="&lt;font style=&quot;font-size: 16px;&quot; color=&quot;#000000&quot;&gt;data-sync-elasticOrders&lt;br&gt;&lt;/font&gt;" style="rounded=0;whiteSpace=wrap;html=1;fillColor=#d5e8d4;gradientColor=#97d077;strokeColor=#82b366;rotation=0;" parent="1" vertex="1">
          <mxGeometry x="2175" y="3275" width="200" height="60" as="geometry" />
        </mxCell>
        <mxCell id="nKXd45dQNLn1FB5D1kFg-18" value="&lt;span style=&quot;color: rgb(0, 0, 0);&quot;&gt;&lt;font style=&quot;font-size: 16px;&quot;&gt;data-stores-manager&lt;/font&gt;&lt;/span&gt;" style="rounded=0;whiteSpace=wrap;html=1;fillColor=#cce5ff;strokeColor=#36393d;" parent="1" vertex="1">
          <mxGeometry x="2832.5700000000006" y="2600" width="200" height="60" as="geometry" />
        </mxCell>
        <mxCell id="p0ilgyeI6ZEBC6Mqhe-d-4" style="edgeStyle=orthogonalEdgeStyle;rounded=0;orthogonalLoop=1;jettySize=auto;html=1;entryX=0.5;entryY=0;entryDx=0;entryDy=0;strokeWidth=3;" parent="1" source="p0ilgyeI6ZEBC6Mqhe-d-2" target="TRZYRDVv4xPQoLyUAHgP-87" edge="1">
          <mxGeometry relative="1" as="geometry" />
        </mxCell>
        <mxCell id="p0ilgyeI6ZEBC6Mqhe-d-5" style="edgeStyle=orthogonalEdgeStyle;rounded=0;orthogonalLoop=1;jettySize=auto;html=1;entryX=0.5;entryY=0;entryDx=0;entryDy=0;exitX=0.5;exitY=1;exitDx=0;exitDy=0;strokeWidth=3;" parent="1" source="p0ilgyeI6ZEBC6Mqhe-d-2" target="TRZYRDVv4xPQoLyUAHgP-79" edge="1">
          <mxGeometry relative="1" as="geometry">
            <Array as="points">
              <mxPoint x="2182.5699999999997" y="2520" />
              <mxPoint x="1807.57" y="2520" />
            </Array>
          </mxGeometry>
        </mxCell>
        <mxCell id="p0ilgyeI6ZEBC6Mqhe-d-6" style="edgeStyle=orthogonalEdgeStyle;rounded=0;orthogonalLoop=1;jettySize=auto;html=1;entryX=0.5;entryY=0;entryDx=0;entryDy=0;strokeWidth=3;" parent="1" source="p0ilgyeI6ZEBC6Mqhe-d-2" target="TRZYRDVv4xPQoLyUAHgP-73" edge="1">
          <mxGeometry relative="1" as="geometry">
            <Array as="points">
              <mxPoint x="2182.5699999999997" y="2520" />
              <mxPoint x="1432.5700000000002" y="2520" />
            </Array>
          </mxGeometry>
        </mxCell>
        <mxCell id="p0ilgyeI6ZEBC6Mqhe-d-7" style="edgeStyle=orthogonalEdgeStyle;rounded=0;orthogonalLoop=1;jettySize=auto;html=1;entryX=0.5;entryY=0;entryDx=0;entryDy=0;strokeWidth=3;" parent="1" source="p0ilgyeI6ZEBC6Mqhe-d-2" target="TRZYRDVv4xPQoLyUAHgP-91" edge="1">
          <mxGeometry relative="1" as="geometry">
            <Array as="points">
              <mxPoint x="2182.5699999999997" y="2520" />
              <mxPoint x="2557.5699999999997" y="2520" />
            </Array>
          </mxGeometry>
        </mxCell>
        <mxCell id="p0ilgyeI6ZEBC6Mqhe-d-8" style="edgeStyle=orthogonalEdgeStyle;rounded=0;orthogonalLoop=1;jettySize=auto;html=1;entryX=0.5;entryY=0;entryDx=0;entryDy=0;strokeWidth=3;" parent="1" source="p0ilgyeI6ZEBC6Mqhe-d-2" target="nKXd45dQNLn1FB5D1kFg-18" edge="1">
          <mxGeometry relative="1" as="geometry">
            <Array as="points">
              <mxPoint x="2182.5699999999997" y="2520" />
              <mxPoint x="2932.5700000000006" y="2520" />
            </Array>
          </mxGeometry>
        </mxCell>
        <mxCell id="p0ilgyeI6ZEBC6Mqhe-d-32" style="edgeStyle=orthogonalEdgeStyle;rounded=0;orthogonalLoop=1;jettySize=auto;html=1;entryX=0.5;entryY=0;entryDx=0;entryDy=0;strokeWidth=3;" parent="1" source="p0ilgyeI6ZEBC6Mqhe-d-2" target="TRZYRDVv4xPQoLyUAHgP-118" edge="1">
          <mxGeometry relative="1" as="geometry">
            <Array as="points">
              <mxPoint x="2183" y="2520" />
              <mxPoint x="3320" y="2520" />
            </Array>
          </mxGeometry>
        </mxCell>
        <mxCell id="p0ilgyeI6ZEBC6Mqhe-d-45" style="edgeStyle=orthogonalEdgeStyle;rounded=0;orthogonalLoop=1;jettySize=auto;html=1;entryX=0.5;entryY=0;entryDx=0;entryDy=0;strokeWidth=3;" parent="1" source="p0ilgyeI6ZEBC6Mqhe-d-2" target="TRZYRDVv4xPQoLyUAHgP-64" edge="1">
          <mxGeometry relative="1" as="geometry">
            <Array as="points">
              <mxPoint x="2183" y="2520" />
              <mxPoint x="1033" y="2520" />
            </Array>
          </mxGeometry>
        </mxCell>
        <mxCell id="p0ilgyeI6ZEBC6Mqhe-d-71" style="edgeStyle=orthogonalEdgeStyle;rounded=0;orthogonalLoop=1;jettySize=auto;html=1;exitX=0.5;exitY=1;exitDx=0;exitDy=0;strokeWidth=3;entryX=0.5;entryY=0;entryDx=0;entryDy=0;" parent="1" target="TRZYRDVv4xPQoLyUAHgP-165" edge="1">
          <mxGeometry relative="1" as="geometry">
            <mxPoint x="2175" y="2520" as="sourcePoint" />
            <mxPoint x="3820" y="2590" as="targetPoint" />
          </mxGeometry>
        </mxCell>
        <mxCell id="p0ilgyeI6ZEBC6Mqhe-d-2" value="&lt;span style=&quot;color: rgb(0, 0, 0);&quot;&gt;&lt;font style=&quot;font-size: 16px;&quot;&gt;data-manager&lt;/font&gt;&lt;/span&gt;" style="rounded=0;whiteSpace=wrap;html=1;fillColor=#ffcd28;gradientColor=#ffa500;strokeColor=#d79b00;" parent="1" vertex="1">
          <mxGeometry x="2082.5699999999997" y="2390" width="200" height="60" as="geometry" />
        </mxCell>
        <mxCell id="p0ilgyeI6ZEBC6Mqhe-d-13" style="edgeStyle=orthogonalEdgeStyle;rounded=0;orthogonalLoop=1;jettySize=auto;html=1;entryX=0.442;entryY=-0.041;entryDx=0;entryDy=0;entryPerimeter=0;strokeWidth=3;" parent="1" source="TRZYRDVv4xPQoLyUAHgP-79" target="TRZYRDVv4xPQoLyUAHgP-76" edge="1">
          <mxGeometry relative="1" as="geometry">
            <Array as="points">
              <mxPoint x="1807.57" y="2710" />
              <mxPoint x="1595.5700000000002" y="2710" />
            </Array>
          </mxGeometry>
        </mxCell>
        <mxCell id="p0ilgyeI6ZEBC6Mqhe-d-15" style="edgeStyle=orthogonalEdgeStyle;rounded=0;orthogonalLoop=1;jettySize=auto;html=1;entryX=0.467;entryY=-0.041;entryDx=0;entryDy=0;entryPerimeter=0;strokeWidth=3;" parent="1" source="TRZYRDVv4xPQoLyUAHgP-87" target="TRZYRDVv4xPQoLyUAHgP-83" edge="1">
          <mxGeometry relative="1" as="geometry">
            <Array as="points">
              <mxPoint x="2182.5699999999997" y="2710" />
              <mxPoint x="1975.57" y="2710" />
            </Array>
          </mxGeometry>
        </mxCell>
        <mxCell id="p0ilgyeI6ZEBC6Mqhe-d-42" style="edgeStyle=orthogonalEdgeStyle;rounded=0;orthogonalLoop=1;jettySize=auto;html=1;entryX=0;entryY=0.5;entryDx=0;entryDy=0;entryPerimeter=0;strokeWidth=3;" parent="1" source="nKXd45dQNLn1FB5D1kFg-5" target="nKXd45dQNLn1FB5D1kFg-4" edge="1">
          <mxGeometry relative="1" as="geometry" />
        </mxCell>
        <mxCell id="p0ilgyeI6ZEBC6Mqhe-d-44" style="edgeStyle=orthogonalEdgeStyle;rounded=0;orthogonalLoop=1;jettySize=auto;html=1;entryX=0.5;entryY=0;entryDx=0;entryDy=0;entryPerimeter=0;strokeWidth=3;" parent="1" source="TRZYRDVv4xPQoLyUAHgP-83" target="nKXd45dQNLn1FB5D1kFg-4" edge="1">
          <mxGeometry relative="1" as="geometry">
            <Array as="points">
              <mxPoint x="1970" y="3010" />
              <mxPoint x="2380" y="3010" />
              <mxPoint x="2380" y="3120" />
              <mxPoint x="2566" y="3120" />
            </Array>
          </mxGeometry>
        </mxCell>
        <mxCell id="p0ilgyeI6ZEBC6Mqhe-d-135" style="edgeStyle=orthogonalEdgeStyle;rounded=0;orthogonalLoop=1;jettySize=auto;html=1;entryX=0.5;entryY=0;entryDx=0;entryDy=0;strokeWidth=3;" parent="1" source="p0ilgyeI6ZEBC6Mqhe-d-132" target="p0ilgyeI6ZEBC6Mqhe-d-133" edge="1">
          <mxGeometry relative="1" as="geometry" />
        </mxCell>
        <mxCell id="p0ilgyeI6ZEBC6Mqhe-d-132" value="" style="verticalLabelPosition=bottom;aspect=fixed;html=1;shape=mxgraph.salesforce.web;" parent="1" vertex="1">
          <mxGeometry x="2055.1400000000003" y="110" width="189.87" height="150" as="geometry" />
        </mxCell>
        <mxCell id="p0ilgyeI6ZEBC6Mqhe-d-137" style="edgeStyle=orthogonalEdgeStyle;rounded=0;orthogonalLoop=1;jettySize=auto;html=1;entryX=0.5;entryY=0;entryDx=0;entryDy=0;strokeWidth=3;" parent="1" source="p0ilgyeI6ZEBC6Mqhe-d-133" target="TRZYRDVv4xPQoLyUAHgP-34" edge="1">
          <mxGeometry relative="1" as="geometry" />
        </mxCell>
        <mxCell id="p0ilgyeI6ZEBC6Mqhe-d-133" value="&lt;span style=&quot;color: rgb(0, 0, 0); font-size: 16px;&quot;&gt;Web Server&lt;/span&gt;" style="rounded=0;whiteSpace=wrap;html=1;fillColor=#d5e8d4;gradientColor=#97d077;strokeColor=#82b366;fontSize=19;" parent="1" vertex="1">
          <mxGeometry x="2050.08" y="420" width="200" height="60" as="geometry" />
        </mxCell>
        <mxCell id="p0ilgyeI6ZEBC6Mqhe-d-136" style="edgeStyle=orthogonalEdgeStyle;rounded=0;orthogonalLoop=1;jettySize=auto;html=1;entryX=1;entryY=0.5;entryDx=0;entryDy=0;exitX=0.474;exitY=1.026;exitDx=0;exitDy=0;exitPerimeter=0;strokeWidth=3;" parent="1" source="p0ilgyeI6ZEBC6Mqhe-d-134" target="TRZYRDVv4xPQoLyUAHgP-34" edge="1">
          <mxGeometry relative="1" as="geometry">
            <Array as="points">
              <mxPoint x="2413" y="254" />
              <mxPoint x="2413" y="660" />
            </Array>
          </mxGeometry>
        </mxCell>
        <mxCell id="p0ilgyeI6ZEBC6Mqhe-d-134" value="" style="html=1;verticalLabelPosition=bottom;align=center;labelBackgroundColor=#ffffff;verticalAlign=top;strokeWidth=2;strokeColor=#0080F0;shadow=0;dashed=0;shape=mxgraph.ios7.icons.smartphone;" parent="1" vertex="1">
          <mxGeometry x="2367.57" y="110" width="90" height="140" as="geometry" />
        </mxCell>
        <mxCell id="p0ilgyeI6ZEBC6Mqhe-d-58" style="edgeStyle=orthogonalEdgeStyle;rounded=0;orthogonalLoop=1;jettySize=auto;html=1;entryX=0.5;entryY=0;entryDx=0;entryDy=0;strokeWidth=3;" parent="1" source="TRZYRDVv4xPQoLyUAHgP-50" target="TRZYRDVv4xPQoLyUAHgP-126" edge="1">
          <mxGeometry relative="1" as="geometry" />
        </mxCell>
        <mxCell id="TRZYRDVv4xPQoLyUAHgP-50" value="&lt;font color=&quot;#000000&quot; style=&quot;font-size: 16px;&quot;&gt;search-sales-manager&lt;br style=&quot;font-size: 16px;&quot;&gt;&lt;/font&gt;" style="rounded=0;whiteSpace=wrap;html=1;fillColor=#ffcd28;gradientColor=#ffa500;strokeColor=#d79b00;fontSize=16;" parent="1" vertex="1">
          <mxGeometry x="1420" y="1230" width="200" height="60" as="geometry" />
        </mxCell>
        <mxCell id="p0ilgyeI6ZEBC6Mqhe-d-151" style="edgeStyle=orthogonalEdgeStyle;rounded=0;orthogonalLoop=1;jettySize=auto;html=1;entryX=0.5;entryY=0;entryDx=0;entryDy=0;strokeWidth=3;" parent="1" source="TRZYRDVv4xPQoLyUAHgP-122" target="p0ilgyeI6ZEBC6Mqhe-d-2" edge="1">
          <mxGeometry relative="1" as="geometry">
            <Array as="points">
              <mxPoint x="1310" y="2340" />
              <mxPoint x="2183" y="2340" />
            </Array>
          </mxGeometry>
        </mxCell>
        <mxCell id="TRZYRDVv4xPQoLyUAHgP-122" value="&lt;span style=&quot;color: rgb(0, 0, 0);&quot;&gt;&lt;font style=&quot;font-size: 16px;&quot;&gt;search-operations-elasticOrders&lt;/font&gt;&lt;/span&gt;" style="rounded=0;whiteSpace=wrap;html=1;fillColor=#bac8d3;strokeColor=#23445d;" parent="1" vertex="1">
          <mxGeometry x="1220" y="1503" width="200" height="60" as="geometry" />
        </mxCell>
        <mxCell id="p0ilgyeI6ZEBC6Mqhe-d-148" style="edgeStyle=orthogonalEdgeStyle;rounded=0;orthogonalLoop=1;jettySize=auto;html=1;strokeWidth=3;" parent="1" source="TRZYRDVv4xPQoLyUAHgP-124" target="p0ilgyeI6ZEBC6Mqhe-d-2" edge="1">
          <mxGeometry relative="1" as="geometry">
            <Array as="points">
              <mxPoint x="1720" y="2340" />
              <mxPoint x="2183" y="2340" />
            </Array>
          </mxGeometry>
        </mxCell>
        <mxCell id="TRZYRDVv4xPQoLyUAHgP-124" value="&lt;span style=&quot;color: rgb(0, 0, 0);&quot;&gt;&lt;font style=&quot;font-size: 16px;&quot;&gt;search-free-elasticOrders&lt;/font&gt;&lt;/span&gt;" style="rounded=0;whiteSpace=wrap;html=1;fillColor=#bac8d3;strokeColor=#23445d;" parent="1" vertex="1">
          <mxGeometry x="1620" y="1503" width="200" height="60" as="geometry" />
        </mxCell>
        <mxCell id="p0ilgyeI6ZEBC6Mqhe-d-149" style="edgeStyle=orthogonalEdgeStyle;rounded=0;orthogonalLoop=1;jettySize=auto;html=1;strokeWidth=3;" parent="1" source="TRZYRDVv4xPQoLyUAHgP-126" edge="1">
          <mxGeometry relative="1" as="geometry">
            <mxPoint x="2180" y="2390" as="targetPoint" />
            <Array as="points">
              <mxPoint x="1510" y="2340" />
              <mxPoint x="2180" y="2340" />
            </Array>
          </mxGeometry>
        </mxCell>
        <mxCell id="TRZYRDVv4xPQoLyUAHgP-126" value="&lt;span style=&quot;color: rgb(0, 0, 0);&quot;&gt;&lt;font style=&quot;font-size: 16px;&quot;&gt;search-fields-elasticOrders&lt;/font&gt;&lt;/span&gt;" style="rounded=0;whiteSpace=wrap;html=1;fillColor=#dae8fc;strokeColor=#6c8ebf;" parent="1" vertex="1">
          <mxGeometry x="1420" y="1400" width="200" height="60" as="geometry" />
        </mxCell>
        <mxCell id="p0ilgyeI6ZEBC6Mqhe-d-59" style="edgeStyle=orthogonalEdgeStyle;rounded=0;orthogonalLoop=1;jettySize=auto;html=1;entryX=0.45;entryY=0.026;entryDx=0;entryDy=0;entryPerimeter=0;strokeWidth=3;" parent="1" source="TRZYRDVv4xPQoLyUAHgP-50" target="TRZYRDVv4xPQoLyUAHgP-122" edge="1">
          <mxGeometry relative="1" as="geometry">
            <Array as="points">
              <mxPoint x="1520.43" y="1340" />
              <mxPoint x="1310.43" y="1340" />
            </Array>
          </mxGeometry>
        </mxCell>
        <mxCell id="p0ilgyeI6ZEBC6Mqhe-d-60" style="edgeStyle=orthogonalEdgeStyle;rounded=0;orthogonalLoop=1;jettySize=auto;html=1;entryX=0.545;entryY=0.026;entryDx=0;entryDy=0;entryPerimeter=0;strokeWidth=3;" parent="1" source="TRZYRDVv4xPQoLyUAHgP-50" target="TRZYRDVv4xPQoLyUAHgP-124" edge="1">
          <mxGeometry relative="1" as="geometry">
            <Array as="points">
              <mxPoint x="1520.43" y="1340" />
              <mxPoint x="1729.43" y="1340" />
            </Array>
          </mxGeometry>
        </mxCell>
        <mxCell id="p0ilgyeI6ZEBC6Mqhe-d-138" style="edgeStyle=orthogonalEdgeStyle;rounded=0;orthogonalLoop=1;jettySize=auto;html=1;entryX=0.5;entryY=0;entryDx=0;entryDy=0;strokeWidth=3;" parent="1" source="TRZYRDVv4xPQoLyUAHgP-60" target="p0ilgyeI6ZEBC6Mqhe-d-2" edge="1">
          <mxGeometry relative="1" as="geometry">
            <Array as="points">
              <mxPoint x="2420" y="2340" />
              <mxPoint x="2183" y="2340" />
            </Array>
          </mxGeometry>
        </mxCell>
        <mxCell id="p0ilgyeI6ZEBC6Mqhe-d-139" style="edgeStyle=orthogonalEdgeStyle;rounded=0;orthogonalLoop=1;jettySize=auto;html=1;entryX=0.5;entryY=0;entryDx=0;entryDy=0;strokeWidth=3;" parent="1" source="TRZYRDVv4xPQoLyUAHgP-111" target="p0ilgyeI6ZEBC6Mqhe-d-2" edge="1">
          <mxGeometry relative="1" as="geometry">
            <Array as="points">
              <mxPoint x="2183" y="2220" />
              <mxPoint x="2183" y="2220" />
            </Array>
          </mxGeometry>
        </mxCell>
        <mxCell id="p0ilgyeI6ZEBC6Mqhe-d-140" style="edgeStyle=orthogonalEdgeStyle;rounded=0;orthogonalLoop=1;jettySize=auto;html=1;entryX=0.5;entryY=0;entryDx=0;entryDy=0;strokeWidth=3;" parent="1" source="TRZYRDVv4xPQoLyUAHgP-62" target="p0ilgyeI6ZEBC6Mqhe-d-2" edge="1">
          <mxGeometry relative="1" as="geometry">
            <Array as="points">
              <mxPoint x="2690" y="2340" />
              <mxPoint x="2183" y="2340" />
            </Array>
          </mxGeometry>
        </mxCell>
        <mxCell id="p0ilgyeI6ZEBC6Mqhe-d-144" style="edgeStyle=orthogonalEdgeStyle;rounded=0;orthogonalLoop=1;jettySize=auto;html=1;entryX=0.5;entryY=0;entryDx=0;entryDy=0;strokeWidth=3;" parent="1" source="TRZYRDVv4xPQoLyUAHgP-109" target="p0ilgyeI6ZEBC6Mqhe-d-2" edge="1">
          <mxGeometry relative="1" as="geometry">
            <Array as="points">
              <mxPoint x="2900" y="2340" />
              <mxPoint x="2183" y="2340" />
            </Array>
          </mxGeometry>
        </mxCell>
        <mxCell id="p0ilgyeI6ZEBC6Mqhe-d-145" style="edgeStyle=orthogonalEdgeStyle;rounded=0;orthogonalLoop=1;jettySize=auto;html=1;entryX=0.5;entryY=0;entryDx=0;entryDy=0;strokeWidth=3;" parent="1" source="TRZYRDVv4xPQoLyUAHgP-107" target="p0ilgyeI6ZEBC6Mqhe-d-2" edge="1">
          <mxGeometry relative="1" as="geometry">
            <Array as="points">
              <mxPoint x="2900" y="1523" />
              <mxPoint x="2900" y="2340" />
              <mxPoint x="2183" y="2340" />
            </Array>
          </mxGeometry>
        </mxCell>
        <mxCell id="p0ilgyeI6ZEBC6Mqhe-d-146" style="edgeStyle=orthogonalEdgeStyle;rounded=0;orthogonalLoop=1;jettySize=auto;html=1;entryX=0.5;entryY=0;entryDx=0;entryDy=0;strokeWidth=3;" parent="1" source="TRZYRDVv4xPQoLyUAHgP-10" target="p0ilgyeI6ZEBC6Mqhe-d-2" edge="1">
          <mxGeometry relative="1" as="geometry">
            <Array as="points">
              <mxPoint x="3300" y="1640" />
              <mxPoint x="2900" y="1640" />
              <mxPoint x="2900" y="2340" />
              <mxPoint x="2183" y="2340" />
            </Array>
          </mxGeometry>
        </mxCell>
        <mxCell id="p0ilgyeI6ZEBC6Mqhe-d-147" style="edgeStyle=orthogonalEdgeStyle;rounded=0;orthogonalLoop=1;jettySize=auto;html=1;entryX=0.5;entryY=0;entryDx=0;entryDy=0;exitX=0.5;exitY=1;exitDx=0;exitDy=0;strokeWidth=3;" parent="1" source="TRZYRDVv4xPQoLyUAHgP-8" target="p0ilgyeI6ZEBC6Mqhe-d-2" edge="1">
          <mxGeometry relative="1" as="geometry">
            <Array as="points">
              <mxPoint x="1915" y="1720" />
              <mxPoint x="1720" y="1720" />
              <mxPoint x="1720" y="2340" />
              <mxPoint x="2183" y="2340" />
            </Array>
          </mxGeometry>
        </mxCell>
        <mxCell id="TRZYRDVv4xPQoLyUAHgP-60" value="&lt;font style=&quot;font-size: 16px;&quot; color=&quot;#0b0a0a&quot;&gt;kafka-elasticOrders-consumer&lt;/font&gt;" style="rounded=0;whiteSpace=wrap;html=1;fillColor=#b1ddf0;strokeColor=#10739e;" parent="1" vertex="1">
          <mxGeometry x="2320" y="2100" width="200" height="60" as="geometry" />
        </mxCell>
        <mxCell id="TRZYRDVv4xPQoLyUAHgP-62" value="&lt;font style=&quot;font-size: 16px;&quot; color=&quot;#0b0a0a&quot;&gt;kafka-notifier-consumer&lt;br&gt;&lt;/font&gt;" style="rounded=0;whiteSpace=wrap;html=1;fillColor=#b1ddf0;strokeColor=#10739e;" parent="1" vertex="1">
          <mxGeometry x="2590" y="2100" width="200" height="60" as="geometry" />
        </mxCell>
        <mxCell id="TRZYRDVv4xPQoLyUAHgP-111" value="&lt;span style=&quot;color: rgb(0, 0, 0);&quot;&gt;&lt;font style=&quot;font-size: 16px;&quot;&gt;metrics-consumer&lt;/font&gt;&lt;/span&gt;" style="rounded=0;whiteSpace=wrap;html=1;fillColor=#b1ddf0;strokeColor=#10739e;" parent="1" vertex="1">
          <mxGeometry x="2062.57" y="2100" width="200" height="60" as="geometry" />
        </mxCell>
        <mxCell id="p0ilgyeI6ZEBC6Mqhe-d-68" style="edgeStyle=orthogonalEdgeStyle;rounded=0;orthogonalLoop=1;jettySize=auto;html=1;entryX=0.5;entryY=0;entryDx=0;entryDy=0;strokeWidth=3;" parent="1" source="TRZYRDVv4xPQoLyUAHgP-144" target="TRZYRDVv4xPQoLyUAHgP-60" edge="1">
          <mxGeometry relative="1" as="geometry" />
        </mxCell>
        <mxCell id="p0ilgyeI6ZEBC6Mqhe-d-82" style="edgeStyle=orthogonalEdgeStyle;rounded=0;orthogonalLoop=1;jettySize=auto;html=1;entryX=0.5;entryY=0;entryDx=0;entryDy=0;strokeWidth=3;" parent="1" source="TRZYRDVv4xPQoLyUAHgP-144" target="TRZYRDVv4xPQoLyUAHgP-62" edge="1">
          <mxGeometry relative="1" as="geometry">
            <Array as="points">
              <mxPoint x="2420" y="2050" />
              <mxPoint x="2690" y="2050" />
            </Array>
          </mxGeometry>
        </mxCell>
        <mxCell id="p0ilgyeI6ZEBC6Mqhe-d-83" style="edgeStyle=orthogonalEdgeStyle;rounded=0;orthogonalLoop=1;jettySize=auto;html=1;entryX=0.423;entryY=-0.031;entryDx=0;entryDy=0;entryPerimeter=0;strokeWidth=3;" parent="1" source="TRZYRDVv4xPQoLyUAHgP-144" target="TRZYRDVv4xPQoLyUAHgP-111" edge="1">
          <mxGeometry relative="1" as="geometry">
            <Array as="points">
              <mxPoint x="2420" y="2050" />
              <mxPoint x="2147" y="2050" />
            </Array>
          </mxGeometry>
        </mxCell>
        <mxCell id="p0ilgyeI6ZEBC6Mqhe-d-152" style="edgeStyle=orthogonalEdgeStyle;rounded=0;orthogonalLoop=1;jettySize=auto;html=1;entryX=0.5;entryY=0;entryDx=0;entryDy=0;strokeWidth=3;" parent="1" source="TRZYRDVv4xPQoLyUAHgP-18" target="p0ilgyeI6ZEBC6Mqhe-d-2" edge="1">
          <mxGeometry relative="1" as="geometry">
            <Array as="points">
              <mxPoint x="1125" y="2340" />
              <mxPoint x="2183" y="2340" />
            </Array>
          </mxGeometry>
        </mxCell>
        <mxCell id="p0ilgyeI6ZEBC6Mqhe-d-153" style="edgeStyle=orthogonalEdgeStyle;rounded=0;orthogonalLoop=1;jettySize=auto;html=1;entryX=0.5;entryY=0;entryDx=0;entryDy=0;strokeWidth=3;" parent="1" source="TRZYRDVv4xPQoLyUAHgP-16" target="p0ilgyeI6ZEBC6Mqhe-d-2" edge="1">
          <mxGeometry relative="1" as="geometry">
            <Array as="points">
              <mxPoint x="1130" y="1523" />
              <mxPoint x="1130" y="2340" />
              <mxPoint x="2183" y="2340" />
            </Array>
          </mxGeometry>
        </mxCell>
        <mxCell id="p0ilgyeI6ZEBC6Mqhe-d-154" style="edgeStyle=orthogonalEdgeStyle;rounded=0;orthogonalLoop=1;jettySize=auto;html=1;entryX=0.5;entryY=0;entryDx=0;entryDy=0;strokeWidth=3;" parent="1" source="TRZYRDVv4xPQoLyUAHgP-22" target="p0ilgyeI6ZEBC6Mqhe-d-2" edge="1">
          <mxGeometry relative="1" as="geometry">
            <Array as="points">
              <mxPoint x="720" y="2340" />
              <mxPoint x="2183" y="2340" />
            </Array>
          </mxGeometry>
        </mxCell>
        <mxCell id="p0ilgyeI6ZEBC6Mqhe-d-155" style="edgeStyle=orthogonalEdgeStyle;rounded=0;orthogonalLoop=1;jettySize=auto;html=1;entryX=0.5;entryY=0;entryDx=0;entryDy=0;strokeWidth=3;" parent="1" source="TRZYRDVv4xPQoLyUAHgP-14" target="p0ilgyeI6ZEBC6Mqhe-d-2" edge="1">
          <mxGeometry relative="1" as="geometry">
            <Array as="points">
              <mxPoint x="510" y="2340" />
              <mxPoint x="2183" y="2340" />
            </Array>
          </mxGeometry>
        </mxCell>
        <mxCell id="p0ilgyeI6ZEBC6Mqhe-d-156" style="edgeStyle=orthogonalEdgeStyle;rounded=0;orthogonalLoop=1;jettySize=auto;html=1;entryX=0.5;entryY=0;entryDx=0;entryDy=0;strokeWidth=3;" parent="1" source="TRZYRDVv4xPQoLyUAHgP-20" target="p0ilgyeI6ZEBC6Mqhe-d-2" edge="1">
          <mxGeometry relative="1" as="geometry">
            <Array as="points">
              <mxPoint x="320" y="2340" />
              <mxPoint x="2183" y="2340" />
            </Array>
          </mxGeometry>
        </mxCell>
        <mxCell id="-oRlV92g44ajmfJlMFko-2" value="" style="strokeWidth=2;html=1;shape=mxgraph.flowchart.database;whiteSpace=wrap;fillColor=#dae8fc;gradientColor=#7ea6e0;strokeColor=#6c8ebf;" vertex="1" parent="1">
          <mxGeometry x="485" y="3243.5" width="110" height="168.25" as="geometry" />
        </mxCell>
        <mxCell id="-oRlV92g44ajmfJlMFko-3" style="edgeStyle=orthogonalEdgeStyle;rounded=0;orthogonalLoop=1;jettySize=auto;html=1;entryX=0.5;entryY=0;entryDx=0;entryDy=0;entryPerimeter=0;strokeWidth=3;" edge="1" parent="1" source="TRZYRDVv4xPQoLyUAHgP-93" target="-oRlV92g44ajmfJlMFko-2">
          <mxGeometry relative="1" as="geometry">
            <Array as="points">
              <mxPoint x="740" y="3020" />
              <mxPoint x="540" y="3020" />
            </Array>
          </mxGeometry>
        </mxCell>
        <mxCell id="-oRlV92g44ajmfJlMFko-4" style="edgeStyle=orthogonalEdgeStyle;rounded=0;orthogonalLoop=1;jettySize=auto;html=1;entryX=0.5;entryY=0;entryDx=0;entryDy=0;entryPerimeter=0;strokeWidth=3;" edge="1" parent="1" source="TRZYRDVv4xPQoLyUAHgP-94" target="-oRlV92g44ajmfJlMFko-2">
          <mxGeometry relative="1" as="geometry" />
        </mxCell>
        <mxCell id="-oRlV92g44ajmfJlMFko-5" style="edgeStyle=orthogonalEdgeStyle;rounded=0;orthogonalLoop=1;jettySize=auto;html=1;entryX=0.5;entryY=0;entryDx=0;entryDy=0;entryPerimeter=0;strokeWidth=3;" edge="1" parent="1" source="TRZYRDVv4xPQoLyUAHgP-95" target="-oRlV92g44ajmfJlMFko-2">
          <mxGeometry relative="1" as="geometry">
            <Array as="points">
              <mxPoint x="335" y="3020" />
              <mxPoint x="540" y="3020" />
            </Array>
          </mxGeometry>
        </mxCell>
        <mxCell id="-oRlV92g44ajmfJlMFko-6" value="" style="strokeWidth=2;html=1;shape=mxgraph.flowchart.database;whiteSpace=wrap;fillColor=#dae8fc;gradientColor=#7ea6e0;strokeColor=#6c8ebf;" vertex="1" parent="1">
          <mxGeometry x="822.5699999999999" y="3250" width="110" height="168.25" as="geometry" />
        </mxCell>
        <mxCell id="-oRlV92g44ajmfJlMFko-7" style="edgeStyle=orthogonalEdgeStyle;rounded=0;orthogonalLoop=1;jettySize=auto;html=1;entryX=0.5;entryY=0;entryDx=0;entryDy=0;entryPerimeter=0;strokeWidth=3;" edge="1" parent="1" source="TRZYRDVv4xPQoLyUAHgP-64" target="-oRlV92g44ajmfJlMFko-6">
          <mxGeometry relative="1" as="geometry">
            <Array as="points">
              <mxPoint x="878" y="2630" />
            </Array>
          </mxGeometry>
        </mxCell>
        <mxCell id="-oRlV92g44ajmfJlMFko-8" value="" style="strokeWidth=2;html=1;shape=mxgraph.flowchart.database;whiteSpace=wrap;fillColor=#dae8fc;gradientColor=#7ea6e0;strokeColor=#6c8ebf;" vertex="1" parent="1">
          <mxGeometry x="1552.57" y="3240" width="110" height="168.25" as="geometry" />
        </mxCell>
        <mxCell id="-oRlV92g44ajmfJlMFko-9" style="edgeStyle=orthogonalEdgeStyle;rounded=0;orthogonalLoop=1;jettySize=auto;html=1;entryX=0.5;entryY=0;entryDx=0;entryDy=0;entryPerimeter=0;strokeWidth=3;" edge="1" parent="1" source="TRZYRDVv4xPQoLyUAHgP-76" target="-oRlV92g44ajmfJlMFko-8">
          <mxGeometry relative="1" as="geometry" />
        </mxCell>
        <mxCell id="-oRlV92g44ajmfJlMFko-10" style="edgeStyle=orthogonalEdgeStyle;rounded=0;orthogonalLoop=1;jettySize=auto;html=1;entryX=0.5;entryY=0;entryDx=0;entryDy=0;entryPerimeter=0;strokeWidth=3;" edge="1" parent="1" source="TRZYRDVv4xPQoLyUAHgP-81" target="-oRlV92g44ajmfJlMFko-8">
          <mxGeometry relative="1" as="geometry">
            <Array as="points">
              <mxPoint x="2183" y="3120" />
              <mxPoint x="1608" y="3120" />
            </Array>
          </mxGeometry>
        </mxCell>
        <mxCell id="-oRlV92g44ajmfJlMFko-11" style="edgeStyle=orthogonalEdgeStyle;rounded=0;orthogonalLoop=1;jettySize=auto;html=1;entryX=0.5;entryY=0;entryDx=0;entryDy=0;entryPerimeter=0;strokeWidth=3;" edge="1" parent="1" source="TRZYRDVv4xPQoLyUAHgP-88" target="-oRlV92g44ajmfJlMFko-8">
          <mxGeometry relative="1" as="geometry">
            <Array as="points">
              <mxPoint x="2558" y="3120" />
              <mxPoint x="1608" y="3120" />
            </Array>
          </mxGeometry>
        </mxCell>
        <mxCell id="-oRlV92g44ajmfJlMFko-12" style="edgeStyle=orthogonalEdgeStyle;rounded=0;orthogonalLoop=1;jettySize=auto;html=1;entryX=0.5;entryY=0;entryDx=0;entryDy=0;entryPerimeter=0;strokeWidth=3;" edge="1" parent="1" source="TRZYRDVv4xPQoLyUAHgP-92" target="-oRlV92g44ajmfJlMFko-8">
          <mxGeometry relative="1" as="geometry">
            <Array as="points">
              <mxPoint x="2758" y="3120" />
              <mxPoint x="1608" y="3120" />
            </Array>
          </mxGeometry>
        </mxCell>
        <mxCell id="-oRlV92g44ajmfJlMFko-13" style="edgeStyle=orthogonalEdgeStyle;rounded=0;orthogonalLoop=1;jettySize=auto;html=1;entryX=0.5;entryY=0;entryDx=0;entryDy=0;entryPerimeter=0;strokeWidth=3;" edge="1" parent="1" source="TRZYRDVv4xPQoLyUAHgP-80" target="-oRlV92g44ajmfJlMFko-8">
          <mxGeometry relative="1" as="geometry">
            <Array as="points">
              <mxPoint x="1808" y="3120" />
              <mxPoint x="1608" y="3120" />
            </Array>
          </mxGeometry>
        </mxCell>
        <mxCell id="-oRlV92g44ajmfJlMFko-14" style="edgeStyle=orthogonalEdgeStyle;rounded=0;orthogonalLoop=1;jettySize=auto;html=1;entryX=0.5;entryY=0;entryDx=0;entryDy=0;entryPerimeter=0;strokeWidth=3;" edge="1" parent="1" source="TRZYRDVv4xPQoLyUAHgP-75" target="-oRlV92g44ajmfJlMFko-8">
          <mxGeometry relative="1" as="geometry">
            <Array as="points">
              <mxPoint x="1433" y="3120" />
              <mxPoint x="1608" y="3120" />
            </Array>
          </mxGeometry>
        </mxCell>
        <mxCell id="-oRlV92g44ajmfJlMFko-15" style="edgeStyle=orthogonalEdgeStyle;rounded=0;orthogonalLoop=1;jettySize=auto;html=1;entryX=0.5;entryY=0;entryDx=0;entryDy=0;entryPerimeter=0;strokeWidth=3;" edge="1" parent="1" source="TRZYRDVv4xPQoLyUAHgP-69" target="-oRlV92g44ajmfJlMFko-8">
          <mxGeometry relative="1" as="geometry">
            <Array as="points">
              <mxPoint x="1233" y="3120" />
              <mxPoint x="1608" y="3120" />
            </Array>
          </mxGeometry>
        </mxCell>
        <mxCell id="-oRlV92g44ajmfJlMFko-16" style="edgeStyle=orthogonalEdgeStyle;rounded=0;orthogonalLoop=1;jettySize=auto;html=1;entryX=0.5;entryY=0;entryDx=0;entryDy=0;entryPerimeter=0;strokeWidth=3;" edge="1" parent="1" source="TRZYRDVv4xPQoLyUAHgP-74" target="-oRlV92g44ajmfJlMFko-8">
          <mxGeometry relative="1" as="geometry">
            <Array as="points">
              <mxPoint x="1033" y="3120" />
              <mxPoint x="1608" y="3120" />
            </Array>
          </mxGeometry>
        </mxCell>
        <mxCell id="-oRlV92g44ajmfJlMFko-17" value="" style="strokeWidth=2;html=1;shape=mxgraph.flowchart.database;whiteSpace=wrap;fillColor=#dae8fc;gradientColor=#7ea6e0;strokeColor=#6c8ebf;" vertex="1" parent="1">
          <mxGeometry x="3265" y="3221.75" width="110" height="168.25" as="geometry" />
        </mxCell>
        <mxCell id="-oRlV92g44ajmfJlMFko-18" value="" style="strokeWidth=2;html=1;shape=mxgraph.flowchart.database;whiteSpace=wrap;fillColor=#dae8fc;gradientColor=#7ea6e0;strokeColor=#6c8ebf;" vertex="1" parent="1">
          <mxGeometry x="2877.5699999999997" y="3221.75" width="110" height="168.25" as="geometry" />
        </mxCell>
        <mxCell id="-oRlV92g44ajmfJlMFko-19" style="edgeStyle=orthogonalEdgeStyle;rounded=0;orthogonalLoop=1;jettySize=auto;html=1;entryX=0.5;entryY=0;entryDx=0;entryDy=0;entryPerimeter=0;strokeWidth=3;" edge="1" parent="1" source="TRZYRDVv4xPQoLyUAHgP-113" target="-oRlV92g44ajmfJlMFko-17">
          <mxGeometry relative="1" as="geometry" />
        </mxCell>
        <mxCell id="-oRlV92g44ajmfJlMFko-20" style="edgeStyle=orthogonalEdgeStyle;rounded=0;orthogonalLoop=1;jettySize=auto;html=1;entryX=0.5;entryY=0;entryDx=0;entryDy=0;entryPerimeter=0;strokeWidth=3;" edge="1" parent="1" source="TRZYRDVv4xPQoLyUAHgP-115" target="-oRlV92g44ajmfJlMFko-17">
          <mxGeometry relative="1" as="geometry">
            <Array as="points">
              <mxPoint x="3520" y="3050" />
              <mxPoint x="3320" y="3050" />
            </Array>
          </mxGeometry>
        </mxCell>
        <mxCell id="-oRlV92g44ajmfJlMFko-21" style="edgeStyle=orthogonalEdgeStyle;rounded=0;orthogonalLoop=1;jettySize=auto;html=1;entryX=0.5;entryY=0;entryDx=0;entryDy=0;entryPerimeter=0;strokeWidth=3;" edge="1" parent="1" source="m2Rx3y2PIeW7X46C0TxE-6" target="-oRlV92g44ajmfJlMFko-17">
          <mxGeometry relative="1" as="geometry">
            <Array as="points">
              <mxPoint x="3120" y="3050" />
              <mxPoint x="3320" y="3050" />
            </Array>
          </mxGeometry>
        </mxCell>
        <mxCell id="-oRlV92g44ajmfJlMFko-22" style="edgeStyle=orthogonalEdgeStyle;rounded=0;orthogonalLoop=1;jettySize=auto;html=1;entryX=0.5;entryY=0;entryDx=0;entryDy=0;entryPerimeter=0;strokeWidth=3;" edge="1" parent="1" source="nKXd45dQNLn1FB5D1kFg-18" target="-oRlV92g44ajmfJlMFko-18">
          <mxGeometry relative="1" as="geometry" />
        </mxCell>
      </root>
    </mxGraphModel>
  </diagram>
</mxfile>
